<?xml version="1.0" encoding="UTF-8" standalone="no"?>
<!DOCTYPE svg PUBLIC "-//W3C//DTD SVG 1.1//EN" "http://www.w3.org/Graphics/SVG/1.1/DTD/svg11.dtd">
<svg width="100%" height="100%" viewBox="0 0 576 251" version="1.1" xmlns="http://www.w3.org/2000/svg" xmlns:xlink="http://www.w3.org/1999/xlink" xml:space="preserve" xmlns:serif="http://www.serif.com/" style="fill-rule:evenodd;clip-rule:evenodd;stroke-linecap:round;stroke-linejoin:round;stroke-miterlimit:1.5;">
    <g transform="matrix(1,0,0,1,-21,-386)">
        <g id="blue_case_de" transform="matrix(1,0,0,1,0,69.2332)">
            <g id="border_template" transform="matrix(4.87356,0,0,2.52973,-149.336,263.342)">
                <path d="M153,31.976C153,30.886 152.54,30 151.974,30L36.026,30C35.46,30 35,30.886 35,31.976L35,118.024C35,119.114 35.46,120 36.026,120L151.974,120C152.54,120 153,119.114 153,118.024L153,31.976Z" style="fill:white;"/>
                <path d="M153,31.976C153,30.886 152.54,30 151.974,30L36.026,30C35.46,30 35,30.886 35,31.976L35,118.024C35,119.114 35.46,120 36.026,120L151.974,120C152.54,120 153,119.114 153,118.024L153,31.976ZM36.231,32.372L36.231,117.628L151.769,117.628L151.769,32.372L36.231,32.372Z" style="fill:rgb(26,80,157);"/>
            </g>
            <g transform="matrix(1,0,0,1,-2.19632,-6.58598)">
                <text x="24.239px" y="337px" style="font-family:'ArialMT', 'Arial', sans-serif;font-size:18.149px;fill:rgb(25,90,206);">h<tspan x="33.86px 38.431px 43.001px 52.623px 61.225px 65.795px 70.366px 74.936px 87.571px 100.205px 111.838px 116.409px 126.03px 135.652px 144.254px 153.876px 163.497px 167.057px 171.628px 180.23px 189.852px 204.498px 209.068px 218.69px 228.311px 232.882px 242.503px 252.125px 266.771px " y="337px 337px 337px 337px 337px 337px 337px 337px 337px 337px 337px 337px 337px 337px 337px 337px 337px 337px 337px 337px 337px 337px 337px 337px 337px 337px 337px 337px 337px ">ttps://www.paypal.com/de/home</tspan></text>
                <rect x="24.239" y="338.923" width="252.154" height="1.329" style="fill:rgb(25,90,206);"/>
            </g>
            <g id="text_in_border" transform="matrix(1,0,0,1,-16.2752,8.6588)">
                <g id="URL_optimized_readability" transform="matrix(1,0,0,1,-1,-1)">
                    <text x="57px" y="399px" style="font-family:'ArialMT', 'Arial', sans-serif;font-size:18.149px;">https://www</text>
                    <text x="149.79px" y="399px" style="font-family:'ArialMT', 'Arial', sans-serif;font-size:18.149px;">.</text>
                    <text x="158.825px" y="399px" style="font-family:'Arial-BoldMT', 'Arial', sans-serif;font-weight:700;font-size:18.149px;">p<tspan x="173.904px 187.99px 202.076px 217.154px 231.24px 240.275px 249.31px 263.396px 278.475px " y="399px 399px 399px 399px 399px 399px 399px 399px 399px ">aypal.com</tspan></text>
                    <text x="298.605px" y="399px" style="font-family:'ArialMT', 'Arial', sans-serif;font-size:18.149px;">/de/home</text>
                </g>
                <g id="first_line" transform="matrix(1,0,0,1,-2.25699,0)">
                    <text x="58px" y="362px" style="font-family:'ArialMT', 'Arial', sans-serif;font-size:18.149px;">Deposited URL<tspan x="180.397px 185.439px " y="362px 362px "> (</tspan>also called web address):</text>
                </g>
                <g transform="matrix(1,0,0,1,-5.45944,3)">
                    <text x="62px" y="434.787px" style="font-family:'ArialMT', 'Arial', sans-serif;font-size:18.149px;">Lo<tspan x="82.332px 95.511px 100.626px 106.742px 110.847px 119.994px 129.14px 134.255px 139.042px 150.201px 160.367px 170.533px 175.648px 181.764px 185.868px 195.015px 204.162px 209.277px 219.443px 224.558px 229.673px 238.82px 242.924px 247.029px 256.176px 265.323px 269.427px 279.593px 289.759px 294.874px 299.989px 310.155px 314.26px 323.407px 328.521px 332.626px 336.731px 346.897px 356.044px 361.158px 365.263px 374.41px 379.525px 388.672px 398.838px 409.004px 418.151px 422.255px 432.421px 442.587px 448.703px 458.869px 469.035px 474.15px 479.265px 489.431px 494.546px 504.712px 514.878px 519.993px 524.097px 534.263px " y="434.787px 434.787px 434.787px 434.787px 434.787px 434.787px 434.787px 434.787px 434.787px 434.787px 434.787px 434.787px 434.787px 434.787px 434.787px 434.787px 434.787px 434.787px 434.787px 434.787px 434.787px 434.787px 434.787px 434.787px 434.787px 434.787px 434.787px 434.787px 434.787px 434.787px 434.787px 434.787px 434.787px 434.787px 434.787px 434.787px 434.787px 434.787px 434.787px 434.787px 434.787px 434.787px 434.787px 434.787px 434.787px 434.787px 434.787px 434.787px 434.787px 434.787px 434.787px 434.787px 434.787px 434.787px 434.787px 434.787px 434.787px 434.787px 434.787px 434.787px 434.787px 434.787px ">w risk: The risk of clicking this link is considered to be low</tspan></text>
                    <text x="62px" y="458.53px" style="font-family:'ArialMT', 'Arial', sans-serif;font-size:18.149px;">be<tspan x="82.332px 91.479px 101.645px 111.811px 120.958px 131.124px 136.239px 146.405px 151.519px 156.634px 165.781px 175.947px 186.113px 192.229px 197.344px 207.51px 213.626px 223.792px 232.939px 237.044px 247.21px 257.376px 266.523px 271.638px 280.785px 285.899px 296.065px 301.18px 311.346px 326.537px 336.703px 346.869px 351.984px 361.13px 366.245px 375.392px 385.558px 395.724px 404.871px 415.037px 421.153px 431.319px 435.424px 445.59px 455.756px 460.871px 465.986px " y="458.53px 458.53px 458.53px 458.53px 458.53px 458.53px 458.53px 458.53px 458.53px 458.53px 458.53px 458.53px 458.53px 458.53px 458.53px 458.53px 458.53px 458.53px 458.53px 458.53px 458.53px 458.53px 458.53px 458.53px 458.53px 458.53px 458.53px 458.53px 458.53px 458.53px 458.53px 458.53px 458.53px 458.53px 458.53px 458.53px 458.53px 458.53px 458.53px 458.53px 458.53px 458.53px 458.53px 458.53px 458.53px 458.53px 458.53px ">cause of your previous statements concerning th</tspan>e</text>
                    <text x="62px" y="482.272px" style="font-family:'ArialMT', 'Arial', sans-serif;font-size:18.149px;">tr<tspan x="73.231px 83.397px 92.544px 97.659px 110.838px 121.004px 127.12px 132.235px 142.401px 146.505px 156.671px 166.837px 175.984px 185.131px 190.246px 200.412px 205.527px 210.642px 215.757px 225.923px 236.089px 241.203px 251.369px 261.535px 276.726px 286.892px 290.997px 301.162px 306.277px " y="482.272px 482.272px 482.272px 482.272px 482.272px 482.272px 482.272px 482.272px 482.272px 482.272px 482.272px 482.272px 482.272px 482.272px 482.272px 482.272px 482.272px 482.272px 482.272px 482.272px 482.272px 482.272px 482.272px 482.272px 482.272px 482.272px 482.272px 482.272px 482.272px ">ustworthiness of the domain (</tspan></text>
                    <text x="312.394px" y="482.272px" style="font-family:'Arial-BoldMT', 'Arial', sans-serif;font-weight:700;font-size:18.149px;">bo<tspan x="334.711px 339.825px 350.984px 356.099px 366.265px 373.4px 383.566px " y="482.272px 482.272px 482.272px 482.272px 482.272px 482.272px 482.272px ">ld area</tspan></text>
                    <text x="393.732px" y="482.272px" style="font-family:'ArialMT', 'Arial', sans-serif;font-size:18.149px;">) <tspan x="404.963px 415.129px 420.244px 425.359px 430.474px 440.64px 444.744px 453.891px 459.006px 472.185px 485.364px " y="482.272px 482.272px 482.272px 482.272px 482.272px 482.272px 482.272px 482.272px 482.272px 482.272px 482.272px ">of this URL</tspan>.</text>
                </g>
            </g>
            <g id="mouse_cursor" transform="matrix(0.565212,0,0,0.565212,24.1818,188.138)">
                <path d="M353,272C353.833,273.715 355.845,275.407 357,277.292C358.544,279.815 362.266,287.133 362.266,287.133C362.266,287.133 364.95,291.689 367,293C369.05,294.311 372.233,295 374.566,295C376.812,295 379.134,294.25 381,293C383.239,291.5 386.774,289.064 388,286C389.333,282.667 389,276.833 389,273C389,269.65 388.588,264.878 388,263C386.962,259.685 382.287,260.866 382.357,262.065C382.507,264.632 382.434,266.133 382.434,266.133C382.434,266.133 382.572,261.355 382,260C381.533,258.893 380.031,258 379,258C377.969,258 375.532,258.29 375.816,260C376.1,261.71 375.816,266 375.816,266C375.816,266 376.119,261.5 375.816,260C375.585,258.854 374.803,257.5 374,257C373.197,256.5 371.769,256.862 371,257C370.405,257.107 369.388,257.829 369.388,257.829L369.434,266C369.434,266 369.426,247.097 368.96,245.231C368.394,242.967 362.732,242.649 361.96,245.231C361.187,247.812 362,272 362,272C362,272 357.188,265.357 356,265C354.812,264.643 352.277,264.877 352,267C351.723,269.123 352.257,270.471 353,272Z" style="fill:white;stroke:black;stroke-width:2.03px;"/>
            </g>
            <g id="more_information_classification" transform="matrix(1,0,0,1,-608.236,-612.591)">
                <g id="info_icon">
                    <g id="information_icon_text" transform="matrix(1,0,0,1,0,0.499922)">
                        <g transform="matrix(30,0,0,30,658.802,1148.72)">
                            <path d="M0.199,-0C0.181,0.004 0.177,0.008 0.127,0.009C0.118,0.009 0.108,0.006 0.102,0.005C0.076,-0 0.064,-0.008 0.065,-0.018L0.065,-0.021C0.081,-0.113 0.09,-0.166 0.093,-0.181C0.103,-0.243 0.107,-0.297 0.107,-0.342C0.107,-0.352 0.103,-0.359 0.093,-0.363C0.083,-0.366 0.071,-0.368 0.056,-0.368C0.041,-0.368 0.031,-0.367 0.026,-0.367L0.028,-0.393C0.037,-0.391 0.045,-0.391 0.053,-0.391L0.077,-0.391C0.093,-0.391 0.116,-0.395 0.146,-0.403C0.177,-0.411 0.199,-0.415 0.213,-0.415C0.224,-0.415 0.231,-0.411 0.233,-0.403C0.236,-0.396 0.237,-0.388 0.237,-0.382C0.237,-0.326 0.233,-0.259 0.224,-0.179C0.218,-0.138 0.214,-0.097 0.209,-0.057L0.261,-0.068L0.266,-0.037C0.256,-0.029 0.246,-0.022 0.236,-0.017C0.226,-0.011 0.212,-0.003 0.199,-0Z" style="fill:rgb(10,20,87);fill-rule:nonzero;"/>
                        </g>
                        <g transform="matrix(1.75018,0,0,1.75018,-498.398,-849.473)">
                            <circle cx="664.369" cy="1132.35" r="1.333" style="fill:rgb(10,20,87);"/>
                        </g>
                    </g>
                    <g transform="matrix(0.9375,0,0,0.9375,41.6198,72.1875)">
                        <circle cx="663" cy="1139" r="16" style="fill:none;stroke:rgb(10,20,87);stroke-width:3px;"/>
                    </g>
                </g>
                <g transform="matrix(1,0,0,1,-1,-4.17085)">
                    <text x="695px" y="1149.09px" style="font-family:'ArialMT', 'Arial', sans-serif;font-size:19px;">M<tspan x="710.352px 720.444px 726.296px 736.388px 741.192px 744.938px 755.03px 759.834px 769.926px 775.778px 791.13px 801.222px 806.026px 809.772px 819.864px 829.956px 834.759px 844.851px 854.943px 859.747px 864.551px 874.643px 878.389px 887.414px 892.218px 901.243px 904.989px 915.081px 924.106px 933.131px 936.877px 945.902px 954.927px 965.019px 969.823px 973.569px 983.661px " y="1149.09px 1149.09px 1149.09px 1149.09px 1149.09px 1149.09px 1149.09px 1149.09px 1149.09px 1149.09px 1149.09px 1149.09px 1149.09px 1149.09px 1149.09px 1149.09px 1149.09px 1149.09px 1149.09px 1149.09px 1149.09px 1149.09px 1149.09px 1149.09px 1149.09px 1149.09px 1149.09px 1149.09px 1149.09px 1149.09px 1149.09px 1149.09px 1149.09px 1149.09px 1149.09px 1149.09px 1149.09px ">ore information on this classiﬁcation</tspan></text>
                    <rect x="695" y="1151.1" width="298.753" height="1.392"/>
                </g>
            </g>
        </g>
    </g>
</svg>
