<?xml version="1.0" encoding="UTF-8" standalone="no"?>
<!DOCTYPE svg PUBLIC "-//W3C//DTD SVG 1.1//EN" "http://www.w3.org/Graphics/SVG/1.1/DTD/svg11.dtd">
<svg width="100%" height="100%" viewBox="0 0 576 281" version="1.1" xmlns="http://www.w3.org/2000/svg" xmlns:xlink="http://www.w3.org/1999/xlink" xml:space="preserve" xmlns:serif="http://www.serif.com/" style="fill-rule:evenodd;clip-rule:evenodd;stroke-linecap:round;stroke-linejoin:round;stroke-miterlimit:1.5;">
    <g transform="matrix(1,0,0,1,-19,-81)">
        <g id="green_case_de" transform="matrix(1,0,0,1,-18,-175.882)">
            <g id="border_template" transform="matrix(4.87356,0,0,2.52973,-133.336,234.108)">
                <path d="M153,31.976C153,30.886 152.54,30 151.974,30L36.026,30C35.46,30 35,30.886 35,31.976L35,118.024C35,119.114 35.46,120 36.026,120L151.974,120C152.54,120 153,119.114 153,118.024L153,31.976Z" style="fill:white;"/>
                <path d="M153,31.976C153,30.886 152.54,30 151.974,30L36.026,30C35.46,30 35,30.886 35,31.976L35,118.024C35,119.114 35.46,120 36.026,120L151.974,120C152.54,120 153,119.114 153,118.024L153,31.976ZM36.231,32.372L36.231,117.628L151.769,117.628L151.769,32.372L36.231,32.372Z" style="fill:rgb(0,128,0);"/>
            </g>
            <g id="text_in_border" transform="matrix(1,0,0,1,0,-20)">
                <g id="URL_optimized_readability" transform="matrix(1,0,0,1,-1,-1)">
                    <text x="57px" y="399px" style="font-family:'ArialMT', 'Arial', sans-serif;font-size:18.149px;">https://www</text>
                    <text x="149.79px" y="399px" style="font-family:'ArialMT', 'Arial', sans-serif;font-size:18.149px;">.</text>
                    <text x="158.825px" y="399px" style="font-family:'Arial-BoldMT', 'Arial', sans-serif;font-weight:700;font-size:18.149px;">e<tspan x="172.911px 187.99px 202.076px 214.815px 223.85px 238.928px " y="399px 399px 399px 399px 399px 399px ">bay.de</tspan></text>
                    <text x="253.014px" y="399px" style="font-family:'ArialMT', 'Arial', sans-serif;font-size:18.149px;">/</text>
                </g>
                <g id="first_line" transform="matrix(1,0,0,1,-2,-1)">
                    <text x="58px" y="362px" style="font-family:'ArialMT', 'Arial', sans-serif;font-size:18.149px;">Deposited URL<tspan x="180.397px 185.439px " y="362px 362px "> (</tspan>also called web address):</text>
                </g>
                <g transform="matrix(1,0,0,1,-6,0)">
                    <text x="62px" y="434.787px" style="font-family:'ArialMT', 'Arial', sans-serif;font-size:18.149px;">Lo<tspan x="82.332px 95.511px 100.626px 106.742px 110.847px 119.994px 129.14px 134.255px 139.37px 144.485px 154.651px 164.817px 169.932px 176.048px 180.153px 189.3px 198.446px 203.561px 213.727px 218.842px 223.957px 233.104px 237.209px 241.313px 250.46px 259.607px 263.712px 273.878px 284.044px 289.158px 294.273px 304.439px 314.605px 319.72px 323.825px 327.929px 338.095px 347.242px 352.357px 356.462px 365.609px 370.723px 379.87px 390.036px 400.202px 409.349px 413.454px 423.62px 433.786px 439.902px 450.068px 460.234px 465.349px 470.464px 480.63px 485.745px 495.911px 506.077px 511.191px 515.296px 525.462px " y="434.787px 434.787px 434.787px 434.787px 434.787px 434.787px 434.787px 434.787px 434.787px 434.787px 434.787px 434.787px 434.787px 434.787px 434.787px 434.787px 434.787px 434.787px 434.787px 434.787px 434.787px 434.787px 434.787px 434.787px 434.787px 434.787px 434.787px 434.787px 434.787px 434.787px 434.787px 434.787px 434.787px 434.787px 434.787px 434.787px 434.787px 434.787px 434.787px 434.787px 434.787px 434.787px 434.787px 434.787px 434.787px 434.787px 434.787px 434.787px 434.787px 434.787px 434.787px 434.787px 434.787px 434.787px 434.787px 434.787px 434.787px 434.787px 434.787px 434.787px 434.787px ">w risk: the risk of clicking the link is considered to be low</tspan></text>
                    <text x="62px" y="458.53px" style="font-family:'ArialMT', 'Arial', sans-serif;font-size:18.149px;">be<tspan x="82.332px 91.479px 101.645px 111.811px 120.958px 131.124px 136.239px 146.405px 151.519px 156.634px 161.749px 171.915px 182.081px 187.196px 192.311px 198.427px 208.593px 217.74px 222.855px 236.034px 246.2px 252.316px 257.431px 267.597px 271.701px 281.867px 292.033px 301.18px 310.327px 315.442px 325.608px 330.723px 335.838px 340.953px 351.119px 361.284px 366.399px 376.565px 386.731px 401.922px 412.088px 416.192px 426.358px " y="458.53px 458.53px 458.53px 458.53px 458.53px 458.53px 458.53px 458.53px 458.53px 458.53px 458.53px 458.53px 458.53px 458.53px 458.53px 458.53px 458.53px 458.53px 458.53px 458.53px 458.53px 458.53px 458.53px 458.53px 458.53px 458.53px 458.53px 458.53px 458.53px 458.53px 458.53px 458.53px 458.53px 458.53px 458.53px 458.53px 458.53px 458.53px 458.53px 458.53px 458.53px 458.53px 458.53px ">cause of the trustworthiness of the domain </tspan>(</text>
                    <text x="437.59px" y="458.53px" style="font-family:'Arial-BoldMT', 'Arial', sans-serif;font-weight:700;font-size:18.149px;">bo<tspan x="459.906px 465.021px 476.18px 481.295px 491.461px 498.596px 508.762px " y="458.53px 458.53px 458.53px 458.53px 458.53px 458.53px 458.53px ">ld area</tspan></text>
                    <text x="518.928px" y="458.53px" style="font-family:'ArialMT', 'Arial', sans-serif;font-size:18.149px;">)</text>
                    <text x="62px" y="482.272px" style="font-family:'ArialMT', 'Arial', sans-serif;font-size:18.149px;">of<tspan x="77.281px 82.396px 87.511px 97.677px 101.781px 110.928px 116.043px 129.222px 142.401px " y="482.272px 482.272px 482.272px 482.272px 482.272px 482.272px 482.272px 482.272px 482.272px "> this URL</tspan>.</text>
                </g>
                <g id="more_information_classification" transform="matrix(1,0,0,1,-590.236,-621.359)">
                    <g id="info_icon">
                        <g id="information_icon_text" transform="matrix(1,0,0,1,0,0.499922)">
                            <g transform="matrix(30,0,0,30,658.802,1148.72)">
                                <path d="M0.199,-0C0.181,0.004 0.177,0.008 0.127,0.009C0.118,0.009 0.108,0.006 0.102,0.005C0.076,-0 0.064,-0.008 0.065,-0.018L0.065,-0.021C0.081,-0.113 0.09,-0.166 0.093,-0.181C0.103,-0.243 0.107,-0.297 0.107,-0.342C0.107,-0.352 0.103,-0.359 0.093,-0.363C0.083,-0.366 0.071,-0.368 0.056,-0.368C0.041,-0.368 0.031,-0.367 0.026,-0.367L0.028,-0.393C0.037,-0.391 0.045,-0.391 0.053,-0.391L0.077,-0.391C0.093,-0.391 0.116,-0.395 0.146,-0.403C0.177,-0.411 0.199,-0.415 0.213,-0.415C0.224,-0.415 0.231,-0.411 0.233,-0.403C0.236,-0.396 0.237,-0.388 0.237,-0.382C0.237,-0.326 0.233,-0.259 0.224,-0.179C0.218,-0.138 0.214,-0.097 0.209,-0.057L0.261,-0.068L0.266,-0.037C0.256,-0.029 0.246,-0.022 0.236,-0.017C0.226,-0.011 0.212,-0.003 0.199,-0Z" style="fill:rgb(10,20,87);fill-rule:nonzero;"/>
                            </g>
                            <g transform="matrix(1.75018,0,0,1.75018,-498.398,-849.473)">
                                <circle cx="664.369" cy="1132.35" r="1.333" style="fill:rgb(10,20,87);"/>
                            </g>
                        </g>
                        <g transform="matrix(0.9375,0,0,0.9375,41.6198,72.1875)">
                            <circle cx="663" cy="1139" r="16" style="fill:none;stroke:rgb(10,20,87);stroke-width:3px;"/>
                        </g>
                    </g>
                    <g transform="matrix(1,0,0,1,-1,-4.17085)">
                        <text x="695px" y="1149.09px" style="font-family:'ArialMT', 'Arial', sans-serif;font-size:19px;">M<tspan x="710.352px 720.444px 726.296px 736.388px 741.192px 744.938px 755.03px 759.834px 769.926px 775.778px 791.13px 801.222px 806.026px 809.772px 819.864px 829.956px 834.759px 844.851px 854.943px 859.747px 864.551px 874.643px 878.389px 887.414px 892.218px 901.243px 904.989px 915.081px 924.106px 933.131px 936.877px 945.902px 954.927px 965.019px 969.823px 973.569px 983.661px " y="1149.09px 1149.09px 1149.09px 1149.09px 1149.09px 1149.09px 1149.09px 1149.09px 1149.09px 1149.09px 1149.09px 1149.09px 1149.09px 1149.09px 1149.09px 1149.09px 1149.09px 1149.09px 1149.09px 1149.09px 1149.09px 1149.09px 1149.09px 1149.09px 1149.09px 1149.09px 1149.09px 1149.09px 1149.09px 1149.09px 1149.09px 1149.09px 1149.09px 1149.09px 1149.09px 1149.09px 1149.09px ">ore information on this classiﬁcation</tspan></text>
                        <rect x="695" y="1151.1" width="298.753" height="1.392"/>
                    </g>
                </g>
            </g>
            <g id="button">
                <g id="rounded_button" transform="matrix(0.991935,0,0,0.97619,3.55327,7.09524)">
                    <path d="M163,266.5C163,260.705 158.37,256 152.667,256L49.333,256C43.63,256 39,260.705 39,266.5L39,287.5C39,293.295 43.63,298 49.333,298L152.667,298C158.37,298 163,293.295 163,287.5L163,266.5Z" style="fill:rgb(0,168,243);"/>
                </g>
                <g id="text_button" transform="matrix(1,0,0,1,22.5528,239.382)">
                    <text x="37px" y="44px" style="font-family:'ArialMT', 'Arial', sans-serif;font-size:20.941px;fill:white;">C<tspan x="51.578px 55.686px 59.794px 69.72px 79.646px 84.919px 96.021px 107.123px 113.552px " y="44px 44px 44px 44px 44px 44px 44px 44px 44px ">lick here</tspan></text>
                </g>
            </g>
            <g id="mouse_cursor" transform="matrix(0.565212,0,0,0.565212,-65.9969,152.263)">
                <path d="M353,272C353.833,273.715 355.845,275.407 357,277.292C358.544,279.815 362.266,287.133 362.266,287.133C362.266,287.133 364.95,291.689 367,293C369.05,294.311 372.233,295 374.566,295C376.812,295 379.134,294.25 381,293C383.239,291.5 386.774,289.064 388,286C389.333,282.667 389,276.833 389,273C389,269.65 388.588,264.878 388,263C386.962,259.685 382.287,260.866 382.357,262.065C382.507,264.632 382.434,266.133 382.434,266.133C382.434,266.133 382.572,261.355 382,260C381.533,258.893 380.031,258 379,258C377.969,258 375.532,258.29 375.816,260C376.1,261.71 375.816,266 375.816,266C375.816,266 376.119,261.5 375.816,260C375.585,258.854 374.803,257.5 374,257C373.197,256.5 371.769,256.862 371,257C370.405,257.107 369.388,257.829 369.388,257.829L369.434,266C369.434,266 369.426,247.097 368.96,245.231C368.394,242.967 362.732,242.649 361.96,245.231C361.187,247.812 362,272 362,272C362,272 357.188,265.357 356,265C354.812,264.643 352.277,264.877 352,267C351.723,269.123 352.257,270.471 353,272Z" style="fill:white;stroke:black;stroke-width:2.03px;"/>
            </g>
        </g>
    </g>
</svg>
