<?xml version="1.0" encoding="UTF-8" standalone="no"?>
<!DOCTYPE svg PUBLIC "-//W3C//DTD SVG 1.1//EN" "http://www.w3.org/Graphics/SVG/1.1/DTD/svg11.dtd">
<svg width="100%" height="100%" viewBox="0 0 576 448" version="1.1" xmlns="http://www.w3.org/2000/svg" xmlns:xlink="http://www.w3.org/1999/xlink" xml:space="preserve" xmlns:serif="http://www.serif.com/" style="fill-rule:evenodd;clip-rule:evenodd;stroke-linecap:round;stroke-linejoin:round;stroke-miterlimit:1.5;">
    <g transform="matrix(1,0,0,1,-630,-925)">
        <g id="red_case_de" transform="matrix(1,0,0,1,0,86.9971)">
            <g id="button" transform="matrix(1,0,0,1,592.761,581.417)">
                <g id="rounded_button" transform="matrix(0.991935,0,0,0.97619,3.55327,7.09524)">
                    <path d="M163,266.5C163,260.705 158.37,256 152.667,256L49.333,256C43.63,256 39,260.705 39,266.5L39,287.5C39,293.295 43.63,298 49.333,298L152.667,298C158.37,298 163,293.295 163,287.5L163,266.5Z" style="fill:rgb(0,168,243);"/>
                </g>
                <g id="text_button" transform="matrix(1,0,0,1,22.5528,239.382)">
                    <text x="37px" y="44px" style="font-family:'ArialMT', 'Arial', sans-serif;font-size:20.941px;fill:white;">C<tspan x="51.578px 55.686px 59.794px 69.72px 79.646px 84.919px 96.021px 107.123px 113.552px " y="44px 44px 44px 44px 44px 44px 44px 44px 44px ">lick here</tspan></text>
                </g>
            </g>
            <g id="border_template" transform="matrix(4.87356,0,0,4.44444,459.425,752.038)">
                <path d="M153,31.125C153,30.504 152.54,30 151.974,30L36.026,30C35.46,30 35,30.504 35,31.125L35,118.875C35,119.496 35.46,120 36.026,120L151.974,120C152.54,120 153,119.496 153,118.875L153,31.125Z" style="fill:white;"/>
                <path d="M153,31.125C153,30.504 152.54,30 151.974,30L36.026,30C35.46,30 35,30.504 35,31.125L35,118.875C35,119.496 35.46,120 36.026,120L151.974,120C152.54,120 153,119.496 153,118.875L153,31.125ZM36.231,31.35L36.231,118.65L151.769,118.65L151.769,31.35L36.231,31.35Z" style="fill:rgb(255,0,0);"/>
            </g>
            <g id="more_information_classification">
                <g id="info_icon">
                    <g id="information_icon_text" transform="matrix(1,0,0,1,0,0.499922)">
                        <g transform="matrix(30,0,0,30,658.802,1148.72)">
                            <path d="M0.199,-0C0.181,0.004 0.177,0.008 0.127,0.009C0.118,0.009 0.108,0.006 0.102,0.005C0.076,-0 0.064,-0.008 0.065,-0.018L0.065,-0.021C0.081,-0.113 0.09,-0.166 0.093,-0.181C0.103,-0.243 0.107,-0.297 0.107,-0.342C0.107,-0.352 0.103,-0.359 0.093,-0.363C0.083,-0.366 0.071,-0.368 0.056,-0.368C0.041,-0.368 0.031,-0.367 0.026,-0.367L0.028,-0.393C0.037,-0.391 0.045,-0.391 0.053,-0.391L0.077,-0.391C0.093,-0.391 0.116,-0.395 0.146,-0.403C0.177,-0.411 0.199,-0.415 0.213,-0.415C0.224,-0.415 0.231,-0.411 0.233,-0.403C0.236,-0.396 0.237,-0.388 0.237,-0.382C0.237,-0.326 0.233,-0.259 0.224,-0.179C0.218,-0.138 0.214,-0.097 0.209,-0.057L0.261,-0.068L0.266,-0.037C0.256,-0.029 0.246,-0.022 0.236,-0.017C0.226,-0.011 0.212,-0.003 0.199,-0Z" style="fill:rgb(10,20,87);fill-rule:nonzero;"/>
                        </g>
                        <g transform="matrix(1.75018,0,0,1.75018,-498.398,-849.473)">
                            <circle cx="664.369" cy="1132.35" r="1.333" style="fill:rgb(10,20,87);"/>
                        </g>
                    </g>
                    <g transform="matrix(0.9375,0,0,0.9375,41.6198,72.1875)">
                        <circle cx="663" cy="1139" r="16" style="fill:none;stroke:rgb(10,20,87);stroke-width:3px;"/>
                    </g>
                </g>
                <g transform="matrix(1,0,0,1,-1,-4.17085)">
                    <text x="695px" y="1149.09px" style="font-family:'ArialMT', 'Arial', sans-serif;font-size:19px;">M<tspan x="710.352px 720.444px 726.296px 736.388px 741.192px 744.938px 755.03px 759.834px 769.926px 775.778px 791.13px 801.222px 806.026px 809.772px 819.864px 829.956px 834.759px 844.851px 854.943px 859.747px 864.551px 874.643px 878.389px 887.414px 892.218px 901.243px 904.989px 915.081px 924.106px 933.131px 936.877px 945.902px 954.927px 965.019px 969.823px 973.569px 983.661px " y="1149.09px 1149.09px 1149.09px 1149.09px 1149.09px 1149.09px 1149.09px 1149.09px 1149.09px 1149.09px 1149.09px 1149.09px 1149.09px 1149.09px 1149.09px 1149.09px 1149.09px 1149.09px 1149.09px 1149.09px 1149.09px 1149.09px 1149.09px 1149.09px 1149.09px 1149.09px 1149.09px 1149.09px 1149.09px 1149.09px 1149.09px 1149.09px 1149.09px 1149.09px 1149.09px 1149.09px 1149.09px ">ore information on this classiﬁcation</tspan></text>
                    <rect x="695" y="1151.1" width="298.753" height="1.392"/>
                </g>
            </g>
            <g id="text_in_border" transform="matrix(1,0,0,1,591.961,552.438)">
                <g id="URL_optimized_readability">
                    <text x="57px" y="399px" style="font-family:'ArialMT', 'Arial', sans-serif;font-size:18.149px;">https://www</text>
                    <text x="149.79px" y="399px" style="font-family:'ArialMT', 'Arial', sans-serif;font-size:18.149px;">.</text>
                    <text x="158.825px" y="399px" style="font-family:'Arial-BoldMT', 'Arial', sans-serif;font-weight:700;font-size:18.149px;">2<tspan x="172.911px 186.997px 201.083px 215.169px 230.248px 244.334px 253.369px 268.448px 277.482px 286.517px 301.596px 311.632px " y="399px 399px 399px 399px 399px 399px 399px 399px 399px 399px 399px 399px ">47covid.info</tspan></text>
                    <text x="326.711px" y="399px" style="font-family:'ArialMT', 'Arial', sans-serif;font-size:18.149px;">/</text>
                </g>
                <g id="first_line" transform="matrix(1,0,0,1,-2.25699,5)">
                    <text x="58px" y="362px" style="font-family:'ArialMT', 'Arial', sans-serif;font-size:18.149px;">Deposited URL<tspan x="180.397px 185.439px " y="362px 362px "> (</tspan>also called web address):</text>
                </g>
                <g transform="matrix(1,0,0,1,-5.45944,2)">
                    <text x="62px" y="434.787px" style="font-family:'Arial-BoldMT', 'Arial', sans-serif;font-weight:700;font-size:18.149px;">H<tspan x="75.233px 80.403px 91.616px 102.829px 107.998px 115.188px 120.357px 130.577px 140.798px " y="434.787px 434.787px 434.787px 434.787px 434.787px 434.787px 434.787px 434.787px 434.787px ">igh risk:</tspan></text>
                    <text x="151.81px" y="434.787px" style="font-family:'ArialMT', 'Arial', sans-serif;font-size:18.149px;"><tspan x="151.81px 163.023px 173.243px 177.402px 186.604px 191.773px 201.993px 212.214px 227.459px 237.679px 241.838px 252.059px 257.228px " y="434.787px 434.787px 434.787px 434.787px 434.787px 434.787px 434.787px 434.787px 434.787px 434.787px 434.787px 434.787px 434.787px ">This domain (</tspan></text>
                    <text x="263.399px" y="434.787px" style="font-family:'Arial-BoldMT', 'Arial', sans-serif;font-weight:700;font-size:18.149px;">b<tspan x="274.612px 285.825px 290.994px 302.207px 307.376px 317.596px 324.786px 335.007px " y="434.787px 434.787px 434.787px 434.787px 434.787px 434.787px 434.787px 434.787px ">old area</tspan></text>
                    <text x="345.227px" y="434.787px" style="font-family:'ArialMT', 'Arial', sans-serif;font-size:18.149px;">)<tspan x="351.398px 356.567px 366.787px 377.008px 386.209px 391.379px 401.599px 405.758px 411.929px 422.149px 432.37px 442.59px 451.791px 456.961px 467.181px 477.402px 487.622px 497.842px 503.012px 513.232px 522.433px 531.635px 541.855px 551.057px 555.216px 565.436px 570.605px 580.826px " y="434.787px 434.787px 434.787px 434.787px 434.787px 434.787px 434.787px 434.787px 434.787px 434.787px 434.787px 434.787px 434.787px 434.787px 434.787px 434.787px 434.787px 434.787px 434.787px 434.787px 434.787px 434.787px 434.787px 434.787px 434.787px 434.787px 434.787px 434.787px "> has already been associated</tspan></text>
                    <text x="62px" y="458.53px" style="font-family:'ArialMT', 'Arial', sans-serif;font-size:18.149px;">w<tspan x="75.233px 79.392px 84.562px 94.782px 99.951px 110.172px 120.392px 124.551px 133.753px 143.973px 148.132px 158.353px 168.573px 173.742px 183.963px 194.183px 204.404px 214.624px 219.793px 224.963px 238.196px 248.417px 254.587px 264.808px 275.028px 285.249px 290.418px 300.638px 306.809px 311.978px 325.212px 335.432px 344.633px 348.792px 359.013px 365.184px 375.404px 385.624px " y="458.53px 458.53px 458.53px 458.53px 458.53px 458.53px 458.53px 458.53px 458.53px 458.53px 458.53px 458.53px 458.53px 458.53px 458.53px 458.53px 458.53px 458.53px 458.53px 458.53px 458.53px 458.53px 458.53px 458.53px 458.53px 458.53px 458.53px 458.53px 458.53px 458.53px 458.53px 458.53px 458.53px 458.53px 458.53px 458.53px 458.53px 458.53px ">ith phishing about Corona or Covid-19.</tspan></text>
                    <text x="62px" y="482.272px" style="font-family:'ArialMT', 'Arial', sans-serif;font-size:18.149px;">H<tspan x="75.233px 85.454px 98.687px 108.908px 118.109px 128.329px 133.499px 138.668px 143.837px 147.996px 153.166px 158.335px 167.536px 177.757px 187.977px 193.146px 203.367px 213.587px 217.746px 221.905px 232.126px 241.327px 251.548px 256.717px 261.886px 272.107px 282.327px 287.496px 292.666px 297.835px 308.055px 312.215px 321.416px 326.585px 330.744px 339.946px 345.115px 355.335px 360.505px 364.664px 374.884px 385.105px 389.264px 394.433px 398.592px 413.837px 424.057px 429.227px 439.447px 444.616px 457.85px 471.083px 480.63px 485.8px 495.001px 505.221px 515.442px 520.611px 535.856px 546.076px " y="482.272px 482.272px 482.272px 482.272px 482.272px 482.272px 482.272px 482.272px 482.272px 482.272px 482.272px 482.272px 482.272px 482.272px 482.272px 482.272px 482.272px 482.272px 482.272px 482.272px 482.272px 482.272px 482.272px 482.272px 482.272px 482.272px 482.272px 482.272px 482.272px 482.272px 482.272px 482.272px 482.272px 482.272px 482.272px 482.272px 482.272px 482.272px 482.272px 482.272px 482.272px 482.272px 482.272px 482.272px 482.272px 482.272px 482.272px 482.272px 482.272px 482.272px 482.272px 482.272px 482.272px 482.272px 482.272px 482.272px 482.272px 482.272px 482.272px 482.272px ">owever, if you believe that this is a legitimate URL you may</tspan></text>
                    <text x="62px" y="506.014px" style="font-family:'ArialMT', 'Arial', sans-serif;font-size:18.149px;">c<tspan x="71.201px 75.36px 79.519px 88.721px 97.922px 103.091px 113.312px 123.532px 128.702px 135.271px 147.503px 156.704px 161.874px 166.033px 175.234px 185.455px 190.624px 200.844px 206.014px 216.234px 220.393px 230.614px 239.815px 244.984px 251.554px 256.723px 266.943px 277.164px 281.323px 291.543px 303.775px 308.945px 313.786px 324.352px 334.573px 344.793px 349.962px 359.164px 369.384px 379.604px 389.825px 393.984px 404.204px 409.374px 414.543px 424.763px 434.984px 445.204px 450.374px 459.575px 469.795px 475.966px 486.186px 491.356px 501.576px 505.735px 509.894px 519.096px 524.265px 533.466px 543.687px 553.907px 563.109px " y="506.014px 506.014px 506.014px 506.014px 506.014px 506.014px 506.014px 506.014px 506.014px 506.014px 506.014px 506.014px 506.014px 506.014px 506.014px 506.014px 506.014px 506.014px 506.014px 506.014px 506.014px 506.014px 506.014px 506.014px 506.014px 506.014px 506.014px 506.014px 506.014px 506.014px 506.014px 506.014px 506.014px 506.014px 506.014px 506.014px 506.014px 506.014px 506.014px 506.014px 506.014px 506.014px 506.014px 506.014px 506.014px 506.014px 506.014px 506.014px 506.014px 506.014px 506.014px 506.014px 506.014px 506.014px 506.014px 506.014px 506.014px 506.014px 506.014px 506.014px 506.014px 506.014px 506.014px ">lick on &quot;Activate Link &quot; below. You should then carefully check</tspan></text>
                    <text x="62px" y="529.757px" style="font-family:'ArialMT', 'Arial', sans-serif;font-size:18.149px;">t<tspan x="67.169px 77.39px 87.61px 92.779px 106.013px 119.246px 128.793px 133.962px 144.183px 154.403px 164.624px 168.783px 179.003px " y="529.757px 529.757px 529.757px 529.757px 529.757px 529.757px 529.757px 529.757px 529.757px 529.757px 529.757px 529.757px 529.757px ">he URL again.</tspan></text>
                </g>
                <g transform="matrix(1,0,0,1,14.875,-171.02)">
                    <text x="40.921px" y="853px" style="font-family:'ArialMT', 'Arial', sans-serif;font-size:18.149px;">T<tspan x="52.134px 62.355px 72.575px 77.744px 81.903px 86.062px 96.283px 105.484px 110.653px 123.887px 134.107px 143.309px 148.478px 158.698px 168.919px 179.139px 188.341px 193.51px 197.669px 206.87px 217.091px 222.26px 232.48px 242.701px 247.87px 257.072px 267.292px 272.461px 277.631px 287.851px 298.071px 303.241px 308.41px 317.611px 327.832px 338.052px 343.222px 352.423px 362.643px 372.864px 378.033px 383.202px 393.423px 402.624px 412.845px 418.014px 427.215px 437.436px 447.656px 453.827px 458.996px 464.165px 468.324px 483.569px 493.79px 498.959px 504.128px " y="853px 853px 853px 853px 853px 853px 853px 853px 853px 853px 853px 853px 853px 853px 853px 853px 853px 853px 853px 853px 853px 853px 853px 853px 853px 853px 853px 853px 853px 853px 853px 853px 853px 853px 853px 853px 853px 853px 853px 853px 853px 853px 853px 853px 853px 853px 853px 853px 853px 853px 853px 853px 853px 853px 853px 853px 853px ">he link was deactivated so that you can take your time to</tspan></text>
                    <text x="40.921px" y="876.742px" style="font-family:'ArialMT', 'Arial', sans-serif;font-size:18.149px;">c<tspan x="50.123px 60.343px 70.563px 79.765px 83.924px 94.144px 104.365px 110.535px 115.705px 128.938px 139.158px 149.379px 154.548px 164.769px 174.989px 181.16px 186.329px 195.53px 205.751px 215.971px 221.14px 234.374px 244.594px 254.815px 259.984px 265.153px 270.323px 280.543px 285.712px 295.933px 305.134px 310.303px 314.463px 323.664px 333.884px 339.054px 349.274px 354.443px 358.602px 363.772px " y="876.742px 876.742px 876.742px 876.742px 876.742px 876.742px 876.742px 876.742px 876.742px 876.742px 876.742px 876.742px 876.742px 876.742px 876.742px 876.742px 876.742px 876.742px 876.742px 876.742px 876.742px 876.742px 876.742px 876.742px 876.742px 876.742px 876.742px 876.742px 876.742px 876.742px 876.742px 876.742px 876.742px 876.742px 876.742px 876.742px 876.742px 876.742px 876.742px 876.742px ">onsider whether you want to activate it.</tspan></text>
                </g>
            </g>
            <g transform="matrix(1.00185,0,0,1.15385,-3.24828,-182.923)">
                <rect x="648.182" y="1176" width="541.818" height="26" style="fill:rgb(238,238,238);stroke:rgb(204,204,204);stroke-width:1px;"/>
            </g>
            <g transform="matrix(1,0,0,1,5.26262,1)">
                <text x="864px" y="1194px" style="font-family:'ArialMT', 'Arial', sans-serif;font-size:18px;fill:rgb(179,179,179);">A<tspan x="875.556px 884.106px 888.657px 892.206px 900.756px 910.317px 914.868px 924.428px 928.979px 938.54px 942.089px 951.65px " y="1194px 1194px 1194px 1194px 1194px 1194px 1194px 1194px 1194px 1194px 1194px 1194px ">ctivate Link</tspan></text>
            </g>
            <g id="mouse_cursor" transform="matrix(0.600152,0,0,0.600152,489.806,720.852)">
                <path d="M353,272C353.833,273.715 355.845,275.407 357,277.292C358.544,279.815 362.266,287.133 362.266,287.133C362.266,287.133 364.95,291.689 367,293C369.05,294.311 372.233,295 374.566,295C376.812,295 379.134,294.25 381,293C383.239,291.5 386.774,289.064 388,286C389.333,282.667 389,276.833 389,273C389,269.65 388.588,264.878 388,263C386.962,259.685 382.287,260.866 382.357,262.065C382.507,264.632 382.434,266.133 382.434,266.133C382.434,266.133 382.572,261.355 382,260C381.533,258.893 380.031,258 379,258C377.969,258 375.532,258.29 375.816,260C376.1,261.71 375.816,266 375.816,266C375.816,266 376.119,261.5 375.816,260C375.585,258.854 374.803,257.5 374,257C373.197,256.5 371.769,256.862 371,257C370.405,257.107 369.388,257.829 369.388,257.829L369.434,266C369.434,266 369.426,247.097 368.96,245.231C368.394,242.967 362.732,242.649 361.96,245.231C361.187,247.812 362,272 362,272C362,272 357.188,265.357 356,265C354.812,264.643 352.277,264.877 352,267C351.723,269.123 352.257,270.471 353,272Z" style="fill:white;stroke:black;stroke-width:2.03px;"/>
            </g>
        </g>
    </g>
</svg>
