<?xml version="1.0" encoding="UTF-8" standalone="no"?>
<!DOCTYPE svg PUBLIC "-//W3C//DTD SVG 1.1//EN" "http://www.w3.org/Graphics/SVG/1.1/DTD/svg11.dtd">
<svg width="100%" height="100%" viewBox="0 0 576 321" version="1.1" xmlns="http://www.w3.org/2000/svg" xmlns:xlink="http://www.w3.org/1999/xlink" xml:space="preserve" xmlns:serif="http://www.serif.com/" style="fill-rule:evenodd;clip-rule:evenodd;stroke-linecap:round;stroke-linejoin:round;stroke-miterlimit:1.5;">
    <g transform="matrix(1,0,0,1,-21,-1052)">
        <g id="simple-grey_case_no-phish_de" transform="matrix(1,0,0,1,0,98.6726)">
            <g id="border_template" transform="matrix(4.87356,0,0,3.28245,-149.336,879.801)">
                <path d="M153,31.523C153,30.683 152.54,30 151.974,30L36.026,30C35.46,30 35,30.683 35,31.523L35,118.477C35,119.317 35.46,120 36.026,120L151.974,120C152.54,120 153,119.317 153,118.477L153,31.523Z" style="fill:white;"/>
                <path d="M153,31.523C153,30.683 152.54,30 151.974,30L36.026,30C35.46,30 35,30.683 35,31.523L35,118.477C35,119.317 35.46,120 36.026,120L151.974,120C152.54,120 153,119.317 153,118.477L153,31.523ZM36.231,31.828L36.231,118.172L151.769,118.172L151.769,31.828L36.231,31.828Z" style="fill:rgb(191,185,185);"/>
            </g>
            <g id="text_in_border" transform="matrix(1,0,0,1,-16.2752,651.512)">
                <g id="URL_optimized_readability" transform="matrix(1,0,0,1,0,-3)">
                    <text x="57px" y="399px" style="font-family:'ArialMT', 'Arial', sans-serif;font-size:18.149px;">https://www</text>
                    <text x="149.79px" y="399px" style="font-family:'ArialMT', 'Arial', sans-serif;font-size:18.149px;">.</text>
                    <text x="158.825px" y="399px" style="font-family:'Arial-BoldMT', 'Arial', sans-serif;font-weight:700;font-size:18.149px;">y<tspan x="172.911px 187.99px 203.068px 213.105px 228.183px 243.262px 257.348px 266.383px 280.469px 295.547px " y="399px 399px 399px 399px 399px 399px 399px 399px 399px 399px ">outube.com</tspan></text>
                    <text x="315.677px" y="399px" style="font-family:'ArialMT', 'Arial', sans-serif;font-size:18.149px;">/feed/subscriptions</text>
                </g>
                <g id="first_line" transform="matrix(1,0,0,1,-2.25699,0)">
                    <text x="58px" y="362px" style="font-family:'ArialMT', 'Arial', sans-serif;font-size:18.149px;">Desposited URL<tspan x="189.471px 194.513px " y="362px 362px "> (</tspan>also called web address):</text>
                </g>
                <g transform="matrix(1,0,0,1,-5.45944,-3)">
                    <text x="62px" y="434.787px" style="font-family:'Arial-BoldMT', 'Arial', sans-serif;font-weight:700;font-size:18.149px;">Un<tspan x="86.374px 96.558px 107.734px 118.911px 133.118px 144.295px 149.428px 156.582px 161.715px 171.899px 182.083px " y="434.787px 434.787px 434.787px 434.787px 434.787px 434.787px 434.787px 434.787px 434.787px 434.787px 434.787px ">known risk:</tspan></text>
                    <text x="193.022px" y="434.787px" style="font-family:'ArialMT', 'Arial', sans-serif;font-size:18.149px;"><tspan x="193.022px 204.199px 214.383px 224.567px 229.7px 235.835px 239.957px 249.122px 258.287px 263.42px 273.605px 278.738px 283.871px 293.036px 297.158px 301.281px 310.446px 319.611px 323.734px 333.918px 344.102px 349.235px 354.368px 364.552px 368.675px 377.84px 382.973px 387.096px 391.219px 401.403px 410.568px 415.701px 424.866px 435.05px 445.234px 450.367px 460.551px 470.736px 475.869px 481.002px 491.186px 501.37px 510.535px 520.719px 524.842px 529.975px 534.098px 543.263px 553.447px 557.57px " y="434.787px 434.787px 434.787px 434.787px 434.787px 434.787px 434.787px 434.787px 434.787px 434.787px 434.787px 434.787px 434.787px 434.787px 434.787px 434.787px 434.787px 434.787px 434.787px 434.787px 434.787px 434.787px 434.787px 434.787px 434.787px 434.787px 434.787px 434.787px 434.787px 434.787px 434.787px 434.787px 434.787px 434.787px 434.787px 434.787px 434.787px 434.787px 434.787px 434.787px 434.787px 434.787px 434.787px 434.787px 434.787px 434.787px 434.787px 434.787px 434.787px 434.787px ">The risk of clicking this link can not deﬁnitively</tspan></text>
                    <text x="62px" y="458.53px" style="font-family:'ArialMT', 'Arial', sans-serif;font-size:18.149px;">be<tspan x="82.368px 87.501px 96.666px 100.789px 110.973px 120.138px 129.303px 133.426px 142.591px 152.775px 162.959px 168.092px 172.898px 183.427px 193.611px 203.796px 208.929px 219.113px 229.297px 238.462px 248.646px 253.779px 258.912px 269.096px 274.229px 283.394px 287.517px 297.701px 306.866px 316.031px 320.154px 325.287px 334.452px 339.585px 344.718px 354.902px 365.086px 370.219px 376.354px 380.476px 389.641px 398.807px 403.94px 413.105px 423.289px 433.473px 439.607px 448.772px 458.956px 463.079px 468.212px 473.345px 483.529px 492.694px 497.827px 506.992px 517.177px 527.361px 536.526px 545.691px 549.814px " y="458.53px 458.53px 458.53px 458.53px 458.53px 458.53px 458.53px 458.53px 458.53px 458.53px 458.53px 458.53px 458.53px 458.53px 458.53px 458.53px 458.53px 458.53px 458.53px 458.53px 458.53px 458.53px 458.53px 458.53px 458.53px 458.53px 458.53px 458.53px 458.53px 458.53px 458.53px 458.53px 458.53px 458.53px 458.53px 458.53px 458.53px 458.53px 458.53px 458.53px 458.53px 458.53px 458.53px 458.53px 458.53px 458.53px 458.53px 458.53px 458.53px 458.53px 458.53px 458.53px 458.53px 458.53px 458.53px 458.53px 458.53px 458.53px 458.53px 458.53px 458.53px "> classiﬁed. You have to classify the risk yourself by checkin</tspan>g</text>
                    <text x="62px" y="482.272px" style="font-family:'ArialMT', 'Arial', sans-serif;font-size:18.149px;">th<tspan x="77.317px 87.501px 92.634px 102.818px 113.003px 128.211px 138.395px 142.518px 152.702px " y="482.272px 482.272px 482.272px 482.272px 482.272px 482.272px 482.272px 482.272px 482.272px ">e domain </tspan>(</text>
                    <text x="163.97px" y="482.272px" style="font-family:'Arial-BoldMT', 'Arial', sans-serif;font-weight:700;font-size:18.149px;">bo<tspan x="186.323px 191.456px 202.633px 207.766px 217.95px 225.103px 235.287px " y="482.272px 482.272px 482.272px 482.272px 482.272px 482.272px 482.272px ">ld area</tspan></text>
                    <text x="245.471px" y="482.272px" style="font-family:'ArialMT', 'Arial', sans-serif;font-size:18.149px;">) <tspan x="256.739px 266.923px 272.056px 277.189px 282.322px 292.506px 302.69px 307.823px 321.02px 334.217px 344.401px " y="482.272px 482.272px 482.272px 482.272px 482.272px 482.272px 482.272px 482.272px 482.272px 482.272px 482.272px ">of the URL.</tspan></text>
                </g>
                <g transform="matrix(1,0,0,1,14.875,-283.724)">
                    <text x="40.921px" y="853px" style="font-family:'ArialMT', 'Arial', sans-serif;font-size:18.149px;">T<tspan x="52.134px 62.355px 72.575px 77.744px 81.903px 86.062px 96.283px 105.484px 110.653px 123.887px 134.107px 143.309px 148.478px 158.698px 168.919px 179.139px 188.341px 193.51px 197.669px 206.87px 217.091px 222.26px 232.48px 242.701px 247.87px 253.039px 263.26px 268.429px 278.65px 282.809px 292.01px 302.23px 307.4px 316.601px 326.822px 337.042px 342.211px 347.381px 351.54px 366.785px 377.005px 382.174px 387.344px 397.564px 402.733px 411.935px 422.155px 432.376px 441.577px 450.778px 455.948px 461.117px 471.337px 481.558px 486.727px 496.947px 507.168px 522.413px 532.633px 536.792px 547.013px " y="853px 853px 853px 853px 853px 853px 853px 853px 853px 853px 853px 853px 853px 853px 853px 853px 853px 853px 853px 853px 853px 853px 853px 853px 853px 853px 853px 853px 853px 853px 853px 853px 853px 853px 853px 853px 853px 853px 853px 853px 853px 853px 853px 853px 853px 853px 853px 853px 853px 853px 853px 853px 853px 853px 853px 853px 853px 853px 853px 853px 853px ">he link was deactivated to give you time to check the domain.</tspan></text>
                </g>
                <g transform="matrix(1,0,0,1,13.8737,-287.773)">
                    <text x="40.921px" y="884.54px" style="font-family:'ArialMT', 'Arial', sans-serif;font-size:18.149px;">R<tspan x="54.173px 64.411px 79.674px 89.913px 94.09px 104.329px 108.506px 118.745px 128.983px 134.171px 139.358px 143.535px 158.798px 169.037px 174.224px 179.412px 189.65px 194.838px 204.057px 214.296px 223.515px 233.754px 243.993px 254.231px 260.42px 269.639px 275.828px " y="884.54px 884.54px 884.54px 884.54px 884.54px 884.54px 884.54px 884.54px 884.54px 884.54px 884.54px 884.54px 884.54px 884.54px 884.54px 884.54px 884.54px 884.54px 884.54px 884.54px 884.54px 884.54px 884.54px 884.54px 884.54px 884.54px 884.54px ">emaining time: 2 second(s).</tspan></text>
                </g>
                <g id="more_information_classification" transform="matrix(1,0,0,1,-591.961,-616.527)">
                    <g id="info_icon">
                        <g id="information_icon_text" transform="matrix(1,0,0,1,0,0.499922)">
                            <g transform="matrix(30,0,0,30,658.802,1148.72)">
                                <path d="M0.199,-0C0.181,0.004 0.177,0.008 0.127,0.009C0.118,0.009 0.108,0.006 0.102,0.005C0.076,-0 0.064,-0.008 0.065,-0.018L0.065,-0.021C0.081,-0.113 0.09,-0.166 0.093,-0.181C0.103,-0.243 0.107,-0.297 0.107,-0.342C0.107,-0.352 0.103,-0.359 0.093,-0.363C0.083,-0.366 0.071,-0.368 0.056,-0.368C0.041,-0.368 0.031,-0.367 0.026,-0.367L0.028,-0.393C0.037,-0.391 0.045,-0.391 0.053,-0.391L0.077,-0.391C0.093,-0.391 0.116,-0.395 0.146,-0.403C0.177,-0.411 0.199,-0.415 0.213,-0.415C0.224,-0.415 0.231,-0.411 0.233,-0.403C0.236,-0.396 0.237,-0.388 0.237,-0.382C0.237,-0.326 0.233,-0.259 0.224,-0.179C0.218,-0.138 0.214,-0.097 0.209,-0.057L0.261,-0.068L0.266,-0.037C0.256,-0.029 0.246,-0.022 0.236,-0.017C0.226,-0.011 0.212,-0.003 0.199,-0Z" style="fill:rgb(10,20,87);fill-rule:nonzero;"/>
                            </g>
                            <g transform="matrix(1.75018,0,0,1.75018,-498.398,-849.473)">
                                <circle cx="664.369" cy="1132.35" r="1.333" style="fill:rgb(10,20,87);"/>
                            </g>
                        </g>
                        <g transform="matrix(0.9375,0,0,0.9375,41.6198,72.1875)">
                            <circle cx="663" cy="1139" r="16" style="fill:none;stroke:rgb(10,20,87);stroke-width:3px;"/>
                        </g>
                    </g>
                    <g transform="matrix(1,0,0,1,-1,-4.17085)">
                        <text x="695px" y="1149.09px" style="font-family:'ArialMT', 'Arial', sans-serif;font-size:19px;">M<tspan x="710.352px 720.444px 726.296px 736.388px 741.192px 744.938px 755.03px 759.834px 769.926px 775.778px 791.13px 801.222px 806.026px 809.772px 819.864px 829.956px 834.759px 844.851px 854.943px 859.747px 864.551px 874.643px 878.389px 887.414px 892.218px 901.243px 904.989px 915.081px 924.106px 933.131px 936.877px 945.902px 954.927px 965.019px 969.823px 973.569px 983.661px " y="1149.09px 1149.09px 1149.09px 1149.09px 1149.09px 1149.09px 1149.09px 1149.09px 1149.09px 1149.09px 1149.09px 1149.09px 1149.09px 1149.09px 1149.09px 1149.09px 1149.09px 1149.09px 1149.09px 1149.09px 1149.09px 1149.09px 1149.09px 1149.09px 1149.09px 1149.09px 1149.09px 1149.09px 1149.09px 1149.09px 1149.09px 1149.09px 1149.09px 1149.09px 1149.09px 1149.09px 1149.09px ">ore information on this classiﬁcation</tspan></text>
                        <rect x="695" y="1151.1" width="298.753" height="1.392"/>
                    </g>
                </g>
            </g>
            <g transform="matrix(1,0,0,1,-3,-2)">
                <text x="26.239px" y="969.476px" style="font-family:'ArialMT', 'Arial', sans-serif;font-size:18.149px;fill:rgb(25,90,206);">h<tspan x="35.878px 40.467px 45.056px 54.695px 63.316px 67.904px 72.493px 77.081px 89.734px 102.387px 114.038px 118.626px 127.247px 136.887px 146.526px 151.115px 160.755px 170.394px 180.034px 184.623px 193.243px 202.883px 217.547px 222.136px 226.724px 236.364px 246.003px 255.643px 260.232px 268.852px 278.492px 288.132px 296.752px 305.373px 310.963px 314.541px 324.181px 328.769px 332.348px 341.987px 351.627px " y="969.476px 969.476px 969.476px 969.476px 969.476px 969.476px 969.476px 969.476px 969.476px 969.476px 969.476px 969.476px 969.476px 969.476px 969.476px 969.476px 969.476px 969.476px 969.476px 969.476px 969.476px 969.476px 969.476px 969.476px 969.476px 969.476px 969.476px 969.476px 969.476px 969.476px 969.476px 969.476px 969.476px 969.476px 969.476px 969.476px 969.476px 969.476px 969.476px 969.476px 969.476px ">ttps://www.youtube.com/feed/subscriptions</tspan></text>
                <rect x="26.239" y="971.398" width="334.009" height="1.329" style="fill:rgb(25,90,206);"/>
            </g>
            <g id="mouse_cursor" transform="matrix(0.600152,0,0,0.600152,57.0454,821.711)">
                <path d="M353,272C353.833,273.715 355.845,275.407 357,277.292C358.544,279.815 362.266,287.133 362.266,287.133C362.266,287.133 364.95,291.689 367,293C369.05,294.311 372.233,295 374.566,295C376.812,295 379.134,294.25 381,293C383.239,291.5 386.774,289.064 388,286C389.333,282.667 389,276.833 389,273C389,269.65 388.588,264.878 388,263C386.962,259.685 382.287,260.866 382.357,262.065C382.507,264.632 382.434,266.133 382.434,266.133C382.434,266.133 382.572,261.355 382,260C381.533,258.893 380.031,258 379,258C377.969,258 375.532,258.29 375.816,260C376.1,261.71 375.816,266 375.816,266C375.816,266 376.119,261.5 375.816,260C375.585,258.854 374.803,257.5 374,257C373.197,256.5 371.769,256.862 371,257C370.405,257.107 369.388,257.829 369.388,257.829L369.434,266C369.434,266 369.426,247.097 368.96,245.231C368.394,242.967 362.732,242.649 361.96,245.231C361.187,247.812 362,272 362,272C362,272 357.188,265.357 356,265C354.812,264.643 352.277,264.877 352,267C351.723,269.123 352.257,270.471 353,272Z" style="fill:white;stroke:black;stroke-width:2.03px;"/>
            </g>
        </g>
    </g>
</svg>
