<?xml version="1.0" encoding="UTF-8" standalone="no"?>
<!DOCTYPE svg PUBLIC "-//W3C//DTD SVG 1.1//EN" "http://www.w3.org/Graphics/SVG/1.1/DTD/svg11.dtd">
<svg width="100%" height="100%" viewBox="0 0 576 248" version="1.1" xmlns="http://www.w3.org/2000/svg" xmlns:xlink="http://www.w3.org/1999/xlink" xml:space="preserve" xmlns:serif="http://www.serif.com/" style="fill-rule:evenodd;clip-rule:evenodd;stroke-linecap:round;stroke-linejoin:round;stroke-miterlimit:1.5;">
    <g transform="matrix(1,0,0,1,-21,-368)">
        <g id="blue_case_de" transform="matrix(1,0,0,1,0,51.1207)">
            <g id="border_template" transform="matrix(4.87356,0,0,2.5,-149.336,264.233)">
                <path d="M153,32C153,30.896 152.54,30 151.974,30L36.026,30C35.46,30 35,30.896 35,32L35,118C35,119.104 35.46,120 36.026,120L151.974,120C152.54,120 153,119.104 153,118L153,32Z" style="fill:white;"/>
                <path d="M153,32C153,30.896 152.54,30 151.974,30L36.026,30C35.46,30 35,30.896 35,32L35,118C35,119.104 35.46,120 36.026,120L151.974,120C152.54,120 153,119.104 153,118L153,32ZM36.231,32.4L36.231,117.6L151.769,117.6L151.769,32.4L36.231,32.4Z" style="fill:rgb(26,80,157);"/>
            </g>
            <g transform="matrix(1,0,0,1,-2.19632,-6.58598)">
                <text x="24.239px" y="337px" style="font-family:'ArialMT', 'Arial', sans-serif;font-size:18.149px;fill:rgb(25,90,206);">h<tspan x="33.86px 38.431px 43.001px 52.623px 61.225px 65.795px 70.366px 74.936px 87.571px 100.205px 111.838px 116.409px 126.03px 135.652px 144.254px 153.876px 163.497px 167.057px 171.628px 180.23px 189.852px 204.498px 209.068px 218.69px 228.311px 232.882px 242.503px 252.125px 266.771px " y="337px 337px 337px 337px 337px 337px 337px 337px 337px 337px 337px 337px 337px 337px 337px 337px 337px 337px 337px 337px 337px 337px 337px 337px 337px 337px 337px 337px 337px ">ttps://www.paypal.com/de/home</tspan></text>
                <rect x="24.239" y="338.923" width="252.154" height="1.329" style="fill:rgb(25,90,206);"/>
            </g>
            <g id="text_in_border" transform="matrix(1,0,0,1,-16.2752,8.6588)">
                <g id="URL_optimized_readability" transform="matrix(1,0,0,1,-1,-1)">
                    <text x="57px" y="399px" style="font-family:'ArialMT', 'Arial', sans-serif;font-size:18.149px;">https://www</text>
                    <text x="149.79px" y="399px" style="font-family:'ArialMT', 'Arial', sans-serif;font-size:18.149px;">.</text>
                    <text x="158.825px" y="399px" style="font-family:'Arial-BoldMT', 'Arial', sans-serif;font-weight:700;font-size:18.149px;">p<tspan x="173.904px 187.99px 202.076px 217.154px 231.24px 240.275px 249.31px 263.396px 278.475px " y="399px 399px 399px 399px 399px 399px 399px 399px 399px ">aypal.com</tspan></text>
                    <text x="298.605px" y="399px" style="font-family:'ArialMT', 'Arial', sans-serif;font-size:18.149px;">/de/home</text>
                </g>
                <g id="first_line" transform="matrix(1,0,0,1,-2.25699,0)">
                    <text x="58px" y="362px" style="font-family:'ArialMT', 'Arial', sans-serif;font-size:18.149px;">Hinterlegte URL<tspan x="186.44px 191.483px " y="362px 362px "> (</tspan>auch W<tspan x="258.725px 268.818px " y="362px 362px ">eb</tspan>adresse genannt):</text>
                </g>
                <g transform="matrix(1,0,0,1,-5.45944,3)">
                    <text x="62px" y="434.787px" style="font-family:'ArialMT', 'Arial', sans-serif;font-size:18.149px;">Ge<tspan x="86.355px 92.471px 96.576px 106.742px 116.908px 127.074px 136.221px 141.336px 154.515px 158.619px 167.766px 171.871px 181.018px 191.184px 196.299px 201.413px 214.592px 224.758px 233.905px 239.02px 252.199px 256.304px 265.451px 269.555px 278.702px 288.868px 293.983px 299.098px 309.264px 315.38px 320.495px 330.661px 340.827px 349.974px 355.089px 367.266px 371.371px 375.475px 384.622px 393.769px 403.935px 414.101px 419.216px 429.382px 439.548px 444.663px 449.778px 459.944px 470.11px 480.276px 485.39px 495.556px 499.661px 509.827px 518.974px 524.089px 537.268px 541.372px 547.489px " y="434.787px 434.787px 434.787px 434.787px 434.787px 434.787px 434.787px 434.787px 434.787px 434.787px 434.787px 434.787px 434.787px 434.787px 434.787px 434.787px 434.787px 434.787px 434.787px 434.787px 434.787px 434.787px 434.787px 434.787px 434.787px 434.787px 434.787px 434.787px 434.787px 434.787px 434.787px 434.787px 434.787px 434.787px 434.787px 434.787px 434.787px 434.787px 434.787px 434.787px 434.787px 434.787px 434.787px 434.787px 434.787px 434.787px 434.787px 434.787px 434.787px 434.787px 434.787px 434.787px 434.787px 434.787px 434.787px 434.787px 434.787px 434.787px 434.787px ">ringes Risiko: Das Risiko für das Klicken auf den Link wird</tspan></text>
                    <text x="62px" y="458.53px" style="font-family:'ArialMT', 'Arial', sans-serif;font-size:18.149px;">au<tspan x="82.332px 87.447px 97.613px 103.729px 113.895px 124.061px 134.227px 139.342px 144.457px 154.623px 160.739px 170.905px 181.071px 186.186px 191.301px 197.417px 207.583px 217.749px 227.915px 234.031px 244.197px 254.363px 258.476px 270.654px 280.82px 290.986px 301.152px 311.318px 321.484px 331.65px 336.765px 345.912px 356.078px 362.194px 367.309px 378.485px 388.651px 394.767px 399.882px 405.998px 416.164px 426.33px 436.496px 446.662px 455.809px 468.988px 479.154px 485.27px 495.436px 499.541px 509.707px 518.854px 529.02px 533.124px 538.239px 543.354px 553.52px " y="458.53px 458.53px 458.53px 458.53px 458.53px 458.53px 458.53px 458.53px 458.53px 458.53px 458.53px 458.53px 458.53px 458.53px 458.53px 458.53px 458.53px 458.53px 458.53px 458.53px 458.53px 458.53px 458.53px 458.53px 458.53px 458.53px 458.53px 458.53px 458.53px 458.53px 458.53px 458.53px 458.53px 458.53px 458.53px 458.53px 458.53px 458.53px 458.53px 458.53px 458.53px 458.53px 458.53px 458.53px 458.53px 458.53px 458.53px 458.53px 458.53px 458.53px 458.53px 458.53px 458.53px 458.53px 458.53px 458.53px 458.53px ">fgrund Ihren früheren Angaben zur Vertrauenswürdigkeit de</tspan>r</text>
                    <text x="62px" y="482.272px" style="font-family:'ArialMT', 'Arial', sans-serif;font-size:18.149px;">Do<tspan x="85.345px 100.535px 110.701px 114.806px 124.972px " y="482.272px 482.272px 482.272px 482.272px 482.272px ">main </tspan>(</text>
                    <text x="136.203px" y="482.272px" style="font-family:'Arial-BoldMT', 'Arial', sans-serif;font-weight:700;font-size:18.149px;">fe<tspan x="152.485px 158.602px 164.718px 169.833px 180.991px 191.157px 198.292px 208.458px 219.617px 226.752px 237.911px 248.077px 259.235px 270.394px 281.552px 291.718px 302.877px 313.043px 318.157px 331.336px 341.502px 348.638px 358.804px 363.918px 374.084px " y="482.272px 482.272px 482.272px 482.272px 482.272px 482.272px 482.272px 482.272px 482.272px 482.272px 482.272px 482.272px 482.272px 482.272px 482.272px 482.272px 482.272px 482.272px 482.272px 482.272px 482.272px 482.272px 482.272px 482.272px 482.272px ">tt hervorgehobene Bereich</tspan></text>
                    <text x="385.243px" y="482.272px" style="font-family:'ArialMT', 'Arial', sans-serif;font-size:18.149px;">) <tspan x="396.474px 406.64px 410.745px 419.892px 425.006px 435.172px 445.338px 451.455px 455.559px 465.725px 475.891px 481.006px 491.172px 495.277px 505.443px 515.609px 525.775px 534.921px 540.036px 550.202px 555.317px " y="482.272px 482.272px 482.272px 482.272px 482.272px 482.272px 482.272px 482.272px 482.272px 482.272px 482.272px 482.272px 482.272px 482.272px 482.272px 482.272px 482.272px 482.272px 482.272px 482.272px 482.272px ">als gering eingestuft</tspan>.</text>
                </g>
                <g id="more_information_classification" transform="matrix(1,0,0,1,0.98364,-65.9701)">
                    <g transform="matrix(1,0,0,1,-592.961,-556.608)">
                        <text x="695px" y="1149.09px" style="font-family:'ArialMT', 'Arial', sans-serif;font-size:19px;">M<tspan x="710.352px 720.444px 730.536px 736.388px 741.192px 745.996px 756.088px 760.891px 770.983px 776.835px 792.188px 802.279px 807.083px 810.829px 820.921px 831.013px 841.105px 851.197px 856.001px 865.026px 875.118px 879.922px 890.013px 893.76px 903.852px 912.877px 922.968px 928.821px 933.624px 945.822px 949.568px 959.66px 968.685px 973.489px 983.581px 988.385px 998.477px 1008.57px " y="1149.09px 1149.09px 1149.09px 1149.09px 1149.09px 1149.09px 1149.09px 1149.09px 1149.09px 1149.09px 1149.09px 1149.09px 1149.09px 1149.09px 1149.09px 1149.09px 1149.09px 1149.09px 1149.09px 1149.09px 1149.09px 1149.09px 1149.09px 1149.09px 1149.09px 1149.09px 1149.09px 1149.09px 1149.09px 1149.09px 1149.09px 1149.09px 1149.09px 1149.09px 1149.09px 1149.09px 1149.09px 1149.09px ">ehr Informationen zu dieser Einstufung</tspan></text>
                        <rect x="695" y="1151.1" width="323.661" height="1.392"/>
                    </g>
                    <g id="info_icon" transform="matrix(1,0,0,1,-591.961,-552.438)">
                        <g id="information_icon_text" transform="matrix(1,0,0,1,0,0.499922)">
                            <g transform="matrix(30,0,0,30,658.802,1148.72)">
                                <path d="M0.199,-0C0.181,0.004 0.177,0.008 0.127,0.009C0.118,0.009 0.108,0.006 0.102,0.005C0.076,-0 0.064,-0.008 0.065,-0.018L0.065,-0.021C0.081,-0.113 0.09,-0.166 0.093,-0.181C0.103,-0.243 0.107,-0.297 0.107,-0.342C0.107,-0.352 0.103,-0.359 0.093,-0.363C0.083,-0.366 0.071,-0.368 0.056,-0.368C0.041,-0.368 0.031,-0.367 0.026,-0.367L0.028,-0.393C0.037,-0.391 0.045,-0.391 0.053,-0.391L0.077,-0.391C0.093,-0.391 0.116,-0.395 0.146,-0.403C0.177,-0.411 0.199,-0.415 0.213,-0.415C0.224,-0.415 0.231,-0.411 0.233,-0.403C0.236,-0.396 0.237,-0.388 0.237,-0.382C0.237,-0.326 0.233,-0.259 0.224,-0.179C0.218,-0.138 0.214,-0.097 0.209,-0.057L0.261,-0.068L0.266,-0.037C0.256,-0.029 0.246,-0.022 0.236,-0.017C0.226,-0.011 0.212,-0.003 0.199,-0Z" style="fill:rgb(10,20,87);fill-rule:nonzero;"/>
                            </g>
                            <g transform="matrix(1.75018,0,0,1.75018,-498.398,-849.473)">
                                <circle cx="664.369" cy="1132.35" r="1.333" style="fill:rgb(10,20,87);"/>
                            </g>
                        </g>
                        <g transform="matrix(0.9375,0,0,0.9375,41.6198,72.1875)">
                            <circle cx="663" cy="1139" r="16" style="fill:none;stroke:rgb(10,20,87);stroke-width:3px;"/>
                        </g>
                    </g>
                </g>
            </g>
            <g id="mouse_cursor" transform="matrix(0.565212,0,0,0.565212,2.18179,188.138)">
                <path d="M353,272C353.833,273.715 355.845,275.407 357,277.292C358.544,279.815 362.266,287.133 362.266,287.133C362.266,287.133 364.95,291.689 367,293C369.05,294.311 372.233,295 374.566,295C376.812,295 379.134,294.25 381,293C383.239,291.5 386.774,289.064 388,286C389.333,282.667 389,276.833 389,273C389,269.65 388.588,264.878 388,263C386.962,259.685 382.287,260.866 382.357,262.065C382.507,264.632 382.434,266.133 382.434,266.133C382.434,266.133 382.572,261.355 382,260C381.533,258.893 380.031,258 379,258C377.969,258 375.532,258.29 375.816,260C376.1,261.71 375.816,266 375.816,266C375.816,266 376.119,261.5 375.816,260C375.585,258.854 374.803,257.5 374,257C373.197,256.5 371.769,256.862 371,257C370.405,257.107 369.388,257.829 369.388,257.829L369.434,266C369.434,266 369.426,247.097 368.96,245.231C368.394,242.967 362.732,242.649 361.96,245.231C361.187,247.812 362,272 362,272C362,272 357.188,265.357 356,265C354.812,264.643 352.277,264.877 352,267C351.723,269.123 352.257,270.471 353,272Z" style="fill:white;stroke:black;stroke-width:2.03px;"/>
            </g>
        </g>
    </g>
</svg>
