<?xml version="1.0" encoding="UTF-8" standalone="no"?>
<!DOCTYPE svg PUBLIC "-//W3C//DTD SVG 1.1//EN" "http://www.w3.org/Graphics/SVG/1.1/DTD/svg11.dtd">
<svg width="100%" height="100%" viewBox="0 0 576 279" version="1.1" xmlns="http://www.w3.org/2000/svg" xmlns:xlink="http://www.w3.org/1999/xlink" xml:space="preserve" xmlns:serif="http://www.serif.com/" style="fill-rule:evenodd;clip-rule:evenodd;stroke-linecap:round;stroke-linejoin:round;stroke-miterlimit:1.5;">
    <g transform="matrix(1,0,0,1,-19,-81)">
        <g id="green_case_de" transform="matrix(1,0,0,1,-18,-175.882)">
            <g id="border_template" transform="matrix(4.87356,0,0,2.5,-133.336,235)">
                <path d="M153,32C153,30.896 152.54,30 151.974,30L36.026,30C35.46,30 35,30.896 35,32L35,118C35,119.104 35.46,120 36.026,120L151.974,120C152.54,120 153,119.104 153,118L153,32Z" style="fill:white;"/>
                <path d="M153,32C153,30.896 152.54,30 151.974,30L36.026,30C35.46,30 35,30.896 35,32L35,118C35,119.104 35.46,120 36.026,120L151.974,120C152.54,120 153,119.104 153,118L153,32ZM36.231,32.4L36.231,117.6L151.769,117.6L151.769,32.4L36.231,32.4Z" style="fill:rgb(0,128,0);"/>
            </g>
            <g id="text_in_border" transform="matrix(1,0,0,1,0,-20)">
                <g id="URL_optimized_readability" transform="matrix(1,0,0,1,-1,-1)">
                    <text x="57px" y="399px" style="font-family:'ArialMT', 'Arial', sans-serif;font-size:18.149px;">https://www</text>
                    <text x="149.79px" y="399px" style="font-family:'ArialMT', 'Arial', sans-serif;font-size:18.149px;">.</text>
                    <text x="158.825px" y="399px" style="font-family:'Arial-BoldMT', 'Arial', sans-serif;font-weight:700;font-size:18.149px;">e<tspan x="172.911px 187.99px 202.076px 214.815px 223.85px 238.928px " y="399px 399px 399px 399px 399px 399px ">bay.de</tspan></text>
                    <text x="253.014px" y="399px" style="font-family:'ArialMT', 'Arial', sans-serif;font-size:18.149px;">/</text>
                </g>
                <g id="first_line" transform="matrix(1,0,0,1,-2,-1)">
                    <text x="58px" y="362px" style="font-family:'ArialMT', 'Arial', sans-serif;font-size:18.149px;">Hinterlegte URL<tspan x="186.44px 191.483px " y="362px 362px "> (</tspan>auch W<tspan x="258.725px 268.818px " y="362px 362px ">eb</tspan>adresse genannt):</text>
                </g>
                <g transform="matrix(1,0,0,1,-6,0)">
                    <text x="62px" y="434.787px" style="font-family:'ArialMT', 'Arial', sans-serif;font-size:18.149px;">Ge<tspan x="86.355px 92.471px 96.576px 106.742px 116.908px 127.074px 136.221px 141.336px 154.515px 158.619px 167.766px 171.871px 181.018px 191.184px 196.299px 201.413px 214.592px 224.758px 233.905px 239.02px 252.199px 256.304px 265.451px 269.555px 278.702px 288.868px 293.983px 299.098px 309.264px 315.38px 320.495px 330.661px 340.827px 349.974px 355.089px 367.266px 371.371px 375.475px 384.622px 393.769px 403.935px 414.101px 419.216px 429.382px 439.548px 444.663px 449.778px 459.944px 470.11px 480.276px 485.39px 495.556px 499.661px 509.827px 518.974px 524.089px 537.268px 541.372px 547.489px " y="434.787px 434.787px 434.787px 434.787px 434.787px 434.787px 434.787px 434.787px 434.787px 434.787px 434.787px 434.787px 434.787px 434.787px 434.787px 434.787px 434.787px 434.787px 434.787px 434.787px 434.787px 434.787px 434.787px 434.787px 434.787px 434.787px 434.787px 434.787px 434.787px 434.787px 434.787px 434.787px 434.787px 434.787px 434.787px 434.787px 434.787px 434.787px 434.787px 434.787px 434.787px 434.787px 434.787px 434.787px 434.787px 434.787px 434.787px 434.787px 434.787px 434.787px 434.787px 434.787px 434.787px 434.787px 434.787px 434.787px 434.787px 434.787px 434.787px ">ringes Risiko: Das Risiko für das Klicken auf den Link wird</tspan></text>
                    <text x="62px" y="458.53px" style="font-family:'ArialMT', 'Arial', sans-serif;font-size:18.149px;">au<tspan x="82.332px 87.447px 97.613px 103.729px 113.895px 124.061px 134.227px 139.342px 149.508px 159.674px 165.79px 170.905px 181.071px 191.237px 200.384px 210.55px 220.716px 230.882px 235.997px 246.163px 256.329px 261.443px 272.62px 282.786px 288.902px 294.017px 300.133px 310.299px 320.465px 330.631px 340.797px 349.944px 363.123px 373.289px 379.405px 389.571px 393.675px 403.841px 412.988px 423.154px 427.259px 432.374px 437.489px 447.655px 457.821px 463.937px 469.052px 482.231px 492.397px 507.587px 517.753px 521.858px 532.024px 537.139px " y="458.53px 458.53px 458.53px 458.53px 458.53px 458.53px 458.53px 458.53px 458.53px 458.53px 458.53px 458.53px 458.53px 458.53px 458.53px 458.53px 458.53px 458.53px 458.53px 458.53px 458.53px 458.53px 458.53px 458.53px 458.53px 458.53px 458.53px 458.53px 458.53px 458.53px 458.53px 458.53px 458.53px 458.53px 458.53px 458.53px 458.53px 458.53px 458.53px 458.53px 458.53px 458.53px 458.53px 458.53px 458.53px 458.53px 458.53px 458.53px 458.53px 458.53px 458.53px 458.53px 458.53px 458.53px ">fgrund der bekannten Vertrauenswürdigkeit der Domain (</tspan></text>
                    <text x="543.255px" y="458.53px" style="font-family:'Arial-BoldMT', 'Arial', sans-serif;font-weight:700;font-size:18.149px;">fe<tspan x="559.537px " y="458.53px ">t</tspan>t</text>
                    <text x="62px" y="482.272px" style="font-family:'Arial-BoldMT', 'Arial', sans-serif;font-weight:700;font-size:18.149px;">he<tspan x="83.324px 90.46px 100.626px 111.784px 118.92px 130.078px 140.244px 151.402px 162.561px 173.719px 183.885px 195.044px 205.21px 210.325px 223.504px 233.67px 240.805px 250.971px 256.086px 266.252px 277.41px 282.525px 293.684px 303.85px 310.985px 316.1px 329.279px " y="482.272px 482.272px 482.272px 482.272px 482.272px 482.272px 482.272px 482.272px 482.272px 482.272px 482.272px 482.272px 482.272px 482.272px 482.272px 482.272px 482.272px 482.272px 482.272px 482.272px 482.272px 482.272px 482.272px 482.272px 482.272px 482.272px 482.272px ">rvorgehobene Bereich der UR</tspan>L</text>
                    <text x="353.616px" y="482.272px" style="font-family:'ArialMT', 'Arial', sans-serif;font-size:18.149px;">) <tspan x="364.847px 375.013px 379.118px 388.265px 393.38px 403.546px 413.712px 419.828px 423.932px 434.098px 444.264px 449.379px 459.545px 463.65px 473.816px 483.982px 494.148px 503.295px 508.41px 518.576px 523.69px " y="482.272px 482.272px 482.272px 482.272px 482.272px 482.272px 482.272px 482.272px 482.272px 482.272px 482.272px 482.272px 482.272px 482.272px 482.272px 482.272px 482.272px 482.272px 482.272px 482.272px 482.272px ">als gering eingestuft</tspan>.</text>
                </g>
            </g>
            <g id="button">
                <g id="rounded_button" transform="matrix(0.991935,0,0,0.97619,3.55327,7.09524)">
                    <path d="M163,266.5C163,260.705 158.37,256 152.667,256L49.333,256C43.63,256 39,260.705 39,266.5L39,287.5C39,293.295 43.63,298 49.333,298L152.667,298C158.37,298 163,293.295 163,287.5L163,266.5Z" style="fill:rgb(0,168,243);"/>
                </g>
                <g id="text_button" transform="matrix(1,0,0,1,16,239.382)">
                    <text x="37px" y="44px" style="font-family:'ArialMT', 'Arial', sans-serif;font-size:20.941px;fill:white;">H<tspan x="51.578px 55.686px 66.788px 73.217px 78.49px 88.416px 92.524px 96.632px 106.558px 116.484px 127.586px " y="44px 44px 44px 44px 44px 44px 44px 44px 44px 44px 44px ">ier klicken</tspan></text>
                </g>
            </g>
            <g id="mouse_cursor" transform="matrix(0.565212,0,0,0.565212,-65.9969,152.263)">
                <path d="M353,272C353.833,273.715 355.845,275.407 357,277.292C358.544,279.815 362.266,287.133 362.266,287.133C362.266,287.133 364.95,291.689 367,293C369.05,294.311 372.233,295 374.566,295C376.812,295 379.134,294.25 381,293C383.239,291.5 386.774,289.064 388,286C389.333,282.667 389,276.833 389,273C389,269.65 388.588,264.878 388,263C386.962,259.685 382.287,260.866 382.357,262.065C382.507,264.632 382.434,266.133 382.434,266.133C382.434,266.133 382.572,261.355 382,260C381.533,258.893 380.031,258 379,258C377.969,258 375.532,258.29 375.816,260C376.1,261.71 375.816,266 375.816,266C375.816,266 376.119,261.5 375.816,260C375.585,258.854 374.803,257.5 374,257C373.197,256.5 371.769,256.862 371,257C370.405,257.107 369.388,257.829 369.388,257.829L369.434,266C369.434,266 369.426,247.097 368.96,245.231C368.394,242.967 362.732,242.649 361.96,245.231C361.187,247.812 362,272 362,272C362,272 357.188,265.357 356,265C354.812,264.643 352.277,264.877 352,267C351.723,269.123 352.257,270.471 353,272Z" style="fill:white;stroke:black;stroke-width:2.03px;"/>
            </g>
            <g id="more_information_classification" transform="matrix(1,0,0,1,2.70849,-87.2118)">
                <g transform="matrix(1,0,0,1,-592.961,-556.608)">
                    <text x="695px" y="1149.09px" style="font-family:'ArialMT', 'Arial', sans-serif;font-size:19px;">M<tspan x="710.352px 720.444px 730.536px 736.388px 741.192px 745.996px 756.088px 760.891px 770.983px 776.835px 792.188px 802.279px 807.083px 810.829px 820.921px 831.013px 841.105px 851.197px 856.001px 865.026px 875.118px 879.922px 890.013px 893.76px 903.852px 912.877px 922.968px 928.821px 933.624px 945.822px 949.568px 959.66px 968.685px 973.489px 983.581px 988.385px 998.477px 1008.57px " y="1149.09px 1149.09px 1149.09px 1149.09px 1149.09px 1149.09px 1149.09px 1149.09px 1149.09px 1149.09px 1149.09px 1149.09px 1149.09px 1149.09px 1149.09px 1149.09px 1149.09px 1149.09px 1149.09px 1149.09px 1149.09px 1149.09px 1149.09px 1149.09px 1149.09px 1149.09px 1149.09px 1149.09px 1149.09px 1149.09px 1149.09px 1149.09px 1149.09px 1149.09px 1149.09px 1149.09px 1149.09px 1149.09px ">ehr Informationen zu dieser Einstufung</tspan></text>
                    <rect x="695" y="1151.1" width="323.661" height="1.392"/>
                </g>
                <g id="info_icon" transform="matrix(1,0,0,1,-591.961,-552.438)">
                    <g id="information_icon_text" transform="matrix(1,0,0,1,0,0.499922)">
                        <g transform="matrix(30,0,0,30,658.802,1148.72)">
                            <path d="M0.199,-0C0.181,0.004 0.177,0.008 0.127,0.009C0.118,0.009 0.108,0.006 0.102,0.005C0.076,-0 0.064,-0.008 0.065,-0.018L0.065,-0.021C0.081,-0.113 0.09,-0.166 0.093,-0.181C0.103,-0.243 0.107,-0.297 0.107,-0.342C0.107,-0.352 0.103,-0.359 0.093,-0.363C0.083,-0.366 0.071,-0.368 0.056,-0.368C0.041,-0.368 0.031,-0.367 0.026,-0.367L0.028,-0.393C0.037,-0.391 0.045,-0.391 0.053,-0.391L0.077,-0.391C0.093,-0.391 0.116,-0.395 0.146,-0.403C0.177,-0.411 0.199,-0.415 0.213,-0.415C0.224,-0.415 0.231,-0.411 0.233,-0.403C0.236,-0.396 0.237,-0.388 0.237,-0.382C0.237,-0.326 0.233,-0.259 0.224,-0.179C0.218,-0.138 0.214,-0.097 0.209,-0.057L0.261,-0.068L0.266,-0.037C0.256,-0.029 0.246,-0.022 0.236,-0.017C0.226,-0.011 0.212,-0.003 0.199,-0Z" style="fill:rgb(10,20,87);fill-rule:nonzero;"/>
                        </g>
                        <g transform="matrix(1.75018,0,0,1.75018,-498.398,-849.473)">
                            <circle cx="664.369" cy="1132.35" r="1.333" style="fill:rgb(10,20,87);"/>
                        </g>
                    </g>
                    <g transform="matrix(0.9375,0,0,0.9375,41.6198,72.1875)">
                        <circle cx="663" cy="1139" r="16" style="fill:none;stroke:rgb(10,20,87);stroke-width:3px;"/>
                    </g>
                </g>
            </g>
        </g>
    </g>
</svg>
