<?xml version="1.0" encoding="UTF-8" standalone="no"?>
<!DOCTYPE svg PUBLIC "-//W3C//DTD SVG 1.1//EN" "http://www.w3.org/Graphics/SVG/1.1/DTD/svg11.dtd">
<svg width="100%" height="100%" viewBox="0 0 576 452" version="1.1" xmlns="http://www.w3.org/2000/svg" xmlns:xlink="http://www.w3.org/1999/xlink" xml:space="preserve" xmlns:serif="http://www.serif.com/" style="fill-rule:evenodd;clip-rule:evenodd;stroke-linecap:round;stroke-linejoin:round;stroke-miterlimit:1.5;">
    <g transform="matrix(1,0,0,1,-630,-922)">
        <g id="red_case_de" transform="matrix(1,0,0,1,0,83.7504)">
            <g id="border_template" transform="matrix(4.87356,0,0,4.44444,459.425,756.667)">
                <path d="M153,31.125C153,30.504 152.54,30 151.974,30L36.026,30C35.46,30 35,30.504 35,31.125L35,118.875C35,119.496 35.46,120 36.026,120L151.974,120C152.54,120 153,119.496 153,118.875L153,31.125Z" style="fill:white;"/>
                <path d="M153,31.125C153,30.504 152.54,30 151.974,30L36.026,30C35.46,30 35,30.504 35,31.125L35,118.875C35,119.496 35.46,120 36.026,120L151.974,120C152.54,120 153,119.496 153,118.875L153,31.125ZM36.231,31.35L36.231,118.65L151.769,118.65L151.769,31.35L36.231,31.35Z" style="fill:rgb(255,0,0);"/>
            </g>
            <g id="button" transform="matrix(1,0,0,1,592.761,581.417)">
                <g id="rounded_button" transform="matrix(0.991935,0,0,0.97619,3.55327,7.09524)">
                    <path d="M163,266.5C163,260.705 158.37,256 152.667,256L49.333,256C43.63,256 39,260.705 39,266.5L39,287.5C39,293.295 43.63,298 49.333,298L152.667,298C158.37,298 163,293.295 163,287.5L163,266.5Z" style="fill:rgb(0,168,243);"/>
                </g>
                <g id="text_button" transform="matrix(1,0,0,1,16,239.382)">
                    <text x="37px" y="44px" style="font-family:'ArialMT', 'Arial', sans-serif;font-size:20.941px;fill:white;">H<tspan x="51.578px 55.686px 66.788px 73.217px 78.49px 88.416px 92.524px 96.632px 106.558px 116.484px 127.586px " y="44px 44px 44px 44px 44px 44px 44px 44px 44px 44px 44px ">ier klicken</tspan></text>
                </g>
            </g>
            <g id="text_in_border" transform="matrix(1,0,0,1,591.961,552.438)">
                <g id="URL_optimized_readability">
                    <text x="57px" y="399px" style="font-family:'ArialMT', 'Arial', sans-serif;font-size:18.149px;">https://www</text>
                    <text x="149.79px" y="399px" style="font-family:'ArialMT', 'Arial', sans-serif;font-size:18.149px;">.</text>
                    <text x="158.825px" y="399px" style="font-family:'Arial-BoldMT', 'Arial', sans-serif;font-weight:700;font-size:18.149px;">2<tspan x="172.911px 186.997px 201.083px 215.169px 230.248px 244.334px 253.369px 268.448px 277.482px 286.517px 301.596px 311.632px " y="399px 399px 399px 399px 399px 399px 399px 399px 399px 399px 399px 399px ">47covid.info</tspan></text>
                    <text x="326.711px" y="399px" style="font-family:'ArialMT', 'Arial', sans-serif;font-size:18.149px;">/</text>
                </g>
                <g id="first_line" transform="matrix(1,0,0,1,-2.25699,5)">
                    <text x="58px" y="362px" style="font-family:'ArialMT', 'Arial', sans-serif;font-size:18.149px;">Hinterlegte URL<tspan x="186.44px 191.483px " y="362px 362px "> (</tspan>auch W<tspan x="258.725px 268.818px " y="362px 362px ">eb</tspan>adresse genannt):</text>
                </g>
                <g transform="matrix(1,0,0,1,-5.45944,2)">
                    <text x="62px" y="434.787px" style="font-family:'Arial-BoldMT', 'Arial', sans-serif;font-weight:700;font-size:18.149px;">H<tspan x="75.233px 86.446px 97.659px 107.88px 118.1px 123.269px 136.503px 141.672px 151.893px 157.062px 167.282px 178.495px " y="434.787px 434.787px 434.787px 434.787px 434.787px 434.787px 434.787px 434.787px 434.787px 434.787px 434.787px 434.787px ">ohes Risiko:</tspan></text>
                    <text x="189.835px" y="434.787px" style="font-family:'ArialMT', 'Arial', sans-serif;font-size:18.149px;"><tspan x="189.835px 203.069px 207.228px 217.448px 226.649px 236.87px 242.039px 255.272px 265.493px 280.738px 290.958px 295.117px 305.338px 310.507px " y="434.787px 434.787px 434.787px 434.787px 434.787px 434.787px 434.787px 434.787px 434.787px 434.787px 434.787px 434.787px 434.787px 434.787px ">Diese Domain (</tspan></text>
                    <text x="316.678px" y="434.787px" style="font-family:'Arial-BoldMT', 'Arial', sans-serif;font-weight:700;font-size:18.149px;">f<tspan x="322.848px 333.069px 339.24px 345.41px 350.58px 361.792px 372.013px 379.203px 389.423px 400.636px 407.826px 419.039px 429.259px 440.472px 451.685px 462.898px 473.118px 484.331px 494.552px 501.741px 506.911px 520.144px 530.365px 537.554px 547.775px 552.944px 563.164px " y="434.787px 434.787px 434.787px 434.787px 434.787px 434.787px 434.787px 434.787px 434.787px 434.787px 434.787px 434.787px 434.787px 434.787px 434.787px 434.787px 434.787px 434.787px 434.787px 434.787px 434.787px 434.787px 434.787px 434.787px 434.787px 434.787px 434.787px ">ett hervorgehobener Bereich</tspan></text>
                    <text x="62px" y="458.53px" style="font-family:'Arial-BoldMT', 'Arial', sans-serif;font-weight:700;font-size:18.149px;">d<tspan x="73.213px 83.433px 90.623px 95.792px 109.026px 122.259px " y="458.53px 458.53px 458.53px 458.53px 458.53px 458.53px ">er URL</tspan></text>
                    <text x="133.472px" y="458.53px" style="font-family:'ArialMT', 'Arial', sans-serif;font-size:18.149px;">)<tspan x="139.643px 144.812px 158.045px 168.266px 174.437px 184.657px 194.877px 200.047px 210.267px 220.488px 226.658px 236.879px 241.038px 246.207px 255.408px 260.578px 275.823px 279.982px 285.151px 290.32px 302.552px 312.773px 316.932px 326.133px 336.354px 340.513px 350.733px 360.954px 366.123px 375.324px 385.545px 400.79px 405.631px 416.844px 427.064px 437.285px 452.53px 462.75px 467.92px 481.153px 491.373px 497.544px 507.764px 517.985px 528.205px 533.375px 543.595px 552.796px 565.028px " y="458.53px 458.53px 458.53px 458.53px 458.53px 458.53px 458.53px 458.53px 458.53px 458.53px 458.53px 458.53px 458.53px 458.53px 458.53px 458.53px 458.53px 458.53px 458.53px 458.53px 458.53px 458.53px 458.53px 458.53px 458.53px 458.53px 458.53px 458.53px 458.53px 458.53px 458.53px 458.53px 458.53px 458.53px 458.53px 458.53px 458.53px 458.53px 458.53px 458.53px 458.53px 458.53px 458.53px 458.53px 458.53px 458.53px 458.53px 458.53px 458.53px "> wurde bereits mit Phishing zum Thema Corona bzw.</tspan></text>
                    <text x="62px" y="482.272px" style="font-family:'ArialMT', 'Arial', sans-serif;font-size:18.149px;">C<tspan x="75.233px 85.454px 94.655px 98.814px 109.035px 115.205px 125.426px 135.646px 140.815px 144.975px 155.195px 160.364px 171.595px 181.815px 187.986px 198.206px 202.366px 212.586px 222.806px 233.027px 243.247px 253.468px 258.637px 268.857px 279.078px 289.298px 295.469px 305.689px 314.891px 325.111px 330.28px " y="482.272px 482.272px 482.272px 482.272px 482.272px 482.272px 482.272px 482.272px 482.272px 482.272px 482.272px 482.272px 482.272px 482.272px 482.272px 482.272px 482.272px 482.272px 482.272px 482.272px 482.272px 482.272px 482.272px 482.272px 482.272px 482.272px 482.272px 482.272px 482.272px 482.272px 482.272px ">ovid-19 in Verbindung gebracht.</tspan></text>
                    <text x="62px" y="506.014px" style="font-family:'ArialMT', 'Arial', sans-serif;font-size:18.149px;">S<tspan x="74.232px 84.452px 88.612px 92.771px 97.94px 108.16px 118.381px 123.55px 135.782px 139.941px 150.162px 155.331px 165.551px 175.772px 185.992px 196.213px 206.433px 215.634px 225.855px 231.024px 241.245px 251.465px 257.636px 261.804px 274.036px 284.256px 293.457px 297.616px 306.818px 317.038px 322.208px 327.377px 336.578px 346.799px 350.958px 361.178px 366.347px 371.517px 381.737px 391.958px 401.159px 410.36px 415.53px 425.75px 434.951px 440.121px 449.322px 453.481px 462.682px 472.903px 478.072px 488.293px 492.452px 502.672px 508.843px 514.012px 524.232px 539.477px 544.647px 554.867px 559.026px 569.247px " y="506.014px 506.014px 506.014px 506.014px 506.014px 506.014px 506.014px 506.014px 506.014px 506.014px 506.014px 506.014px 506.014px 506.014px 506.014px 506.014px 506.014px 506.014px 506.014px 506.014px 506.014px 506.014px 506.014px 506.014px 506.014px 506.014px 506.014px 506.014px 506.014px 506.014px 506.014px 506.014px 506.014px 506.014px 506.014px 506.014px 506.014px 506.014px 506.014px 506.014px 506.014px 506.014px 506.014px 506.014px 506.014px 506.014px 506.014px 506.014px 506.014px 506.014px 506.014px 506.014px 506.014px 506.014px 506.014px 506.014px 506.014px 506.014px 506.014px 506.014px 506.014px 506.014px ">ollten Sie dennoch der Ansicht sein, dass es sich hier um eine</tspan></text>
                    <text x="62px" y="529.757px" style="font-family:'ArialMT', 'Arial', sans-serif;font-size:18.149px;">l<tspan x="66.159px 76.38px 86.6px 90.759px 95.928px 100.087px 115.332px 125.553px 130.722px 143.955px 157.189px 166.736px 171.905px 182.126px 192.346px 202.566px 212.787px 223.007px 227.166px 232.336px 237.505px 242.674px 252.895px 263.115px 273.336px 283.556px 288.725px 297.927px 308.147px 318.367px 328.588px 338.808px 349.029px 354.198px 366.43px 370.589px 380.81px 385.979px 396.199px 406.42px 411.589px 421.809px 432.03px 437.199px 447.42px 457.64px " y="529.757px 529.757px 529.757px 529.757px 529.757px 529.757px 529.757px 529.757px 529.757px 529.757px 529.757px 529.757px 529.757px 529.757px 529.757px 529.757px 529.757px 529.757px 529.757px 529.757px 529.757px 529.757px 529.757px 529.757px 529.757px 529.757px 529.757px 529.757px 529.757px 529.757px 529.757px 529.757px 529.757px 529.757px 529.757px 529.757px 529.757px 529.757px 529.757px 529.757px 529.757px 529.757px 529.757px 529.757px 529.757px 529.757px ">egitime URL handelt, dann können Sie unten auf</tspan></text>
                    <text x="467.979px" y="538.757px" style="font-family:'ArialMT', 'Arial', sans-serif;font-size:18.149px;">&quot;</text>
                    <text x="474.548px" y="529.757px" style="font-family:'ArialMT', 'Arial', sans-serif;font-size:18.149px;">L<tspan x="484.769px 488.928px 499.148px 508.349px 513.519px 523.739px 532.94px 538.11px 542.269px 551.47px 555.629px 565.85px 572.02px 582.241px 592.461px " y="529.757px 529.757px 529.757px 529.757px 529.757px 529.757px 529.757px 529.757px 529.757px 529.757px 529.757px 529.757px 529.757px 529.757px 529.757px ">ink aktivieren&quot;</tspan></text>
                    <text x="62px" y="553.499px" style="font-family:'ArialMT', 'Arial', sans-serif;font-size:18.149px;">k<tspan x="71.201px 75.36px 79.519px 88.721px 97.922px 108.143px 118.363px 123.532px 128.702px 141.935px 152.155px 162.376px 172.596px 181.798px 192.018px 197.187px 206.389px 216.609px 220.768px 224.927px 230.097px 240.317px 250.537px 255.707px 267.939px 272.098px 282.318px 287.488px 297.708px 301.867px 312.088px 317.257px 330.49px 343.724px 353.271px 358.44px 368.66px 378.881px 388.082px 398.302px 413.547px 423.768px 427.927px 433.096px 442.298px 452.518px 458.689px 468.909px 474.078px 484.299px 488.458px 493.627px 497.786px 508.007px 513.176px 523.396px 529.567px 539.788px 544.957px 555.177px 565.398px " y="553.499px 553.499px 553.499px 553.499px 553.499px 553.499px 553.499px 553.499px 553.499px 553.499px 553.499px 553.499px 553.499px 553.499px 553.499px 553.499px 553.499px 553.499px 553.499px 553.499px 553.499px 553.499px 553.499px 553.499px 553.499px 553.499px 553.499px 553.499px 553.499px 553.499px 553.499px 553.499px 553.499px 553.499px 553.499px 553.499px 553.499px 553.499px 553.499px 553.499px 553.499px 553.499px 553.499px 553.499px 553.499px 553.499px 553.499px 553.499px 553.499px 553.499px 553.499px 553.499px 553.499px 553.499px 553.499px 553.499px 553.499px 553.499px 553.499px 553.499px 553.499px ">licken. Danach sollten Sie die URL nochmal sorgfältig prüfen.</tspan></text>
                </g>
                <g transform="matrix(1,0,0,1,14.875,-171.02)">
                    <text x="40.921px" y="853px" style="font-family:'ArialMT', 'Arial', sans-serif;font-size:18.149px;">D<tspan x="54.155px 64.375px 70.546px 75.715px 85.935px 90.094px 100.315px 109.516px 114.686px 127.919px 138.139px 144.31px 154.53px 164.751px 169.92px 180.141px 190.361px 200.581px 209.783px 214.952px 219.111px 228.313px 232.472px 242.692px 248.863px 254.032px 259.201px 264.371px 274.591px 284.811px 300.056px 304.215px 309.385px 314.554px 326.786px 330.945px 341.166px 346.335px 350.494px 360.714px 365.884px 379.117px 389.338px 399.558px 409.778px 414.948px 425.168px 435.389px 445.609px 451.78px 455.939px 466.159px 476.38px 486.6px " y="853px 853px 853px 853px 853px 853px 853px 853px 853px 853px 853px 853px 853px 853px 853px 853px 853px 853px 853px 853px 853px 853px 853px 853px 853px 853px 853px 853px 853px 853px 853px 853px 853px 853px 853px 853px 853px 853px 853px 853px 853px 853px 853px 853px 853px 853px 853px 853px 853px 853px 853px 853px 853px 853px ">er Link wurde deaktiviert, damit Sie in Ruhe überlegen</tspan></text>
                    <text x="40.921px" y="876.742px" style="font-family:'ArialMT', 'Arial', sans-serif;font-size:18.149px;">k<tspan x="50.123px 60.343px 70.563px 80.784px 91.004px 101.225px 106.394px 111.563px 121.784px 132.004px 137.173px 149.405px 153.565px 163.785px 168.954px 173.113px 183.334px 193.554px 198.723px 208.944px 218.145px 223.315px 227.474px 236.675px 240.834px 251.054px 257.225px 267.446px 277.666px 282.835px 296.069px 306.289px 310.448px 314.607px 324.828px 335.048px " y="876.742px 876.742px 876.742px 876.742px 876.742px 876.742px 876.742px 876.742px 876.742px 876.742px 876.742px 876.742px 876.742px 876.742px 876.742px 876.742px 876.742px 876.742px 876.742px 876.742px 876.742px 876.742px 876.742px 876.742px 876.742px 876.742px 876.742px 876.742px 876.742px 876.742px 876.742px 876.742px 876.742px 876.742px 876.742px 876.742px ">önnen, ob Sie ihn aktivieren wollen.</tspan></text>
                </g>
                <g id="more_information_classification">
                    <g transform="matrix(1,0,0,1,-592.961,-556.608)">
                        <text x="695px" y="1149.09px" style="font-family:'ArialMT', 'Arial', sans-serif;font-size:19px;">M<tspan x="710.352px 720.444px 730.536px 736.388px 741.192px 745.996px 756.088px 760.891px 770.983px 776.835px 792.188px 802.279px 807.083px 810.829px 820.921px 831.013px 841.105px 851.197px 856.001px 865.026px 875.118px 879.922px 890.013px 893.76px 903.852px 912.877px 922.968px 928.821px 933.624px 945.822px 949.568px 959.66px 968.685px 973.489px 983.581px 988.385px 998.477px 1008.57px " y="1149.09px 1149.09px 1149.09px 1149.09px 1149.09px 1149.09px 1149.09px 1149.09px 1149.09px 1149.09px 1149.09px 1149.09px 1149.09px 1149.09px 1149.09px 1149.09px 1149.09px 1149.09px 1149.09px 1149.09px 1149.09px 1149.09px 1149.09px 1149.09px 1149.09px 1149.09px 1149.09px 1149.09px 1149.09px 1149.09px 1149.09px 1149.09px 1149.09px 1149.09px 1149.09px 1149.09px 1149.09px 1149.09px ">ehr Informationen zu dieser Einstufung</tspan></text>
                        <rect x="695" y="1151.1" width="323.661" height="1.392"/>
                    </g>
                    <g id="info_icon" transform="matrix(1,0,0,1,-591.961,-552.438)">
                        <g id="information_icon_text" transform="matrix(1,0,0,1,0,0.499922)">
                            <g transform="matrix(30,0,0,30,658.802,1148.72)">
                                <path d="M0.199,-0C0.181,0.004 0.177,0.008 0.127,0.009C0.118,0.009 0.108,0.006 0.102,0.005C0.076,-0 0.064,-0.008 0.065,-0.018L0.065,-0.021C0.081,-0.113 0.09,-0.166 0.093,-0.181C0.103,-0.243 0.107,-0.297 0.107,-0.342C0.107,-0.352 0.103,-0.359 0.093,-0.363C0.083,-0.366 0.071,-0.368 0.056,-0.368C0.041,-0.368 0.031,-0.367 0.026,-0.367L0.028,-0.393C0.037,-0.391 0.045,-0.391 0.053,-0.391L0.077,-0.391C0.093,-0.391 0.116,-0.395 0.146,-0.403C0.177,-0.411 0.199,-0.415 0.213,-0.415C0.224,-0.415 0.231,-0.411 0.233,-0.403C0.236,-0.396 0.237,-0.388 0.237,-0.382C0.237,-0.326 0.233,-0.259 0.224,-0.179C0.218,-0.138 0.214,-0.097 0.209,-0.057L0.261,-0.068L0.266,-0.037C0.256,-0.029 0.246,-0.022 0.236,-0.017C0.226,-0.011 0.212,-0.003 0.199,-0Z" style="fill:rgb(10,20,87);fill-rule:nonzero;"/>
                            </g>
                            <g transform="matrix(1.75018,0,0,1.75018,-498.398,-849.473)">
                                <circle cx="664.369" cy="1132.35" r="1.333" style="fill:rgb(10,20,87);"/>
                            </g>
                        </g>
                        <g transform="matrix(0.9375,0,0,0.9375,41.6198,72.1875)">
                            <circle cx="663" cy="1139" r="16" style="fill:none;stroke:rgb(10,20,87);stroke-width:3px;"/>
                        </g>
                    </g>
                </g>
            </g>
            <g transform="matrix(1.00185,0,0,1.15385,-3.24828,-182.923)">
                <rect x="648.182" y="1176" width="541.818" height="26" style="fill:rgb(238,238,238);stroke:rgb(204,204,204);stroke-width:1px;"/>
            </g>
            <g transform="matrix(1,0,0,1,1.12082,1)">
                <text x="864px" y="1194px" style="font-family:'ArialMT', 'Arial', sans-serif;font-size:18px;fill:rgb(179,179,179);">L<tspan x="873.561px 877.11px 886.671px 895.221px 899.771px 909.332px 917.882px 922.433px 925.982px 934.532px 938.081px 947.642px 953.186px 962.747px " y="1194px 1194px 1194px 1194px 1194px 1194px 1194px 1194px 1194px 1194px 1194px 1194px 1194px 1194px ">ink aktivieren</tspan></text>
            </g>
            <g id="mouse_cursor" transform="matrix(0.600152,0,0,0.600152,489.806,720.852)">
                <path d="M353,272C353.833,273.715 355.845,275.407 357,277.292C358.544,279.815 362.266,287.133 362.266,287.133C362.266,287.133 364.95,291.689 367,293C369.05,294.311 372.233,295 374.566,295C376.812,295 379.134,294.25 381,293C383.239,291.5 386.774,289.064 388,286C389.333,282.667 389,276.833 389,273C389,269.65 388.588,264.878 388,263C386.962,259.685 382.287,260.866 382.357,262.065C382.507,264.632 382.434,266.133 382.434,266.133C382.434,266.133 382.572,261.355 382,260C381.533,258.893 380.031,258 379,258C377.969,258 375.532,258.29 375.816,260C376.1,261.71 375.816,266 375.816,266C375.816,266 376.119,261.5 375.816,260C375.585,258.854 374.803,257.5 374,257C373.197,256.5 371.769,256.862 371,257C370.405,257.107 369.388,257.829 369.388,257.829L369.434,266C369.434,266 369.426,247.097 368.96,245.231C368.394,242.967 362.732,242.649 361.96,245.231C361.187,247.812 362,272 362,272C362,272 357.188,265.357 356,265C354.812,264.643 352.277,264.877 352,267C351.723,269.123 352.257,270.471 353,272Z" style="fill:white;stroke:black;stroke-width:2.03px;"/>
            </g>
        </g>
    </g>
</svg>
