<?xml version="1.0" encoding="UTF-8" standalone="no"?>
<!DOCTYPE svg PUBLIC "-//W3C//DTD SVG 1.1//EN" "http://www.w3.org/Graphics/SVG/1.1/DTD/svg11.dtd">
<svg width="100%" height="100%" viewBox="0 0 576 398" version="1.1" xmlns="http://www.w3.org/2000/svg" xmlns:xlink="http://www.w3.org/1999/xlink" xml:space="preserve" xmlns:serif="http://www.serif.com/" style="fill-rule:evenodd;clip-rule:evenodd;stroke-linecap:round;stroke-linejoin:round;stroke-miterlimit:1.5;">
    <g transform="matrix(1,0,0,1,-21,-622)">
        <g id="simple-grey_case_phish_de" transform="matrix(1,0,0,1,0,58.558)">
            <g id="border_template" transform="matrix(4.87356,0,0,3.60892,-149.336,527.941)">
                <path d="M153,31.385C153,30.621 152.54,30 151.974,30L36.026,30C35.46,30 35,30.621 35,31.385L35,118.615C35,119.379 35.46,120 36.026,120L151.974,120C152.54,120 153,119.379 153,118.615L153,31.385Z" style="fill:white;"/>
                <path d="M153,31.385C153,30.621 152.54,30 151.974,30L36.026,30C35.46,30 35,30.621 35,31.385L35,118.615C35,119.379 35.46,120 36.026,120L151.974,120C152.54,120 153,119.379 153,118.615L153,31.385ZM36.231,31.663L36.231,118.337L151.769,118.337L151.769,31.663L36.231,31.663Z" style="fill:rgb(191,185,185);"/>
            </g>
            <g id="text_in_border" transform="matrix(1,0,0,1,-16.2752,310.02)">
                <g id="URL_optimized_readability" transform="matrix(1,0,0,1,0,-2)">
                    <text x="57px" y="399px" style="font-family:'ArialMT', 'Arial', sans-serif;font-size:18.149px;">https:/</text>
                    <text x="106.43px" y="399px" style="font-family:'ArialMT', 'Arial', sans-serif;font-size:18.149px;">/</text>
                    <text x="115.465px" y="399px" style="font-family:'Arial-BoldMT', 'Arial', sans-serif;font-weight:700;font-size:18.149px;">2<tspan x="129.551px 143.637px 157.723px 171.809px 185.895px 200.974px 212.029px 227.108px 242.187px 256.273px 270.359px 279.394px 290.449px 305.528px 319.614px 334.692px 348.778px 363.857px 378.936px 393.022px 413.151px 422.186px 436.272px 445.307px 459.394px 474.472px " y="399px 399px 399px 399px 399px 399px 399px 399px 399px 399px 399px 399px 399px 399px 399px 399px 399px 399px 399px 399px 399px 399px 399px 399px 399px 399px ">020coronaviruspandemic.com</tspan></text>
                    <text x="494.602px" y="399px" style="font-family:'ArialMT', 'Arial', sans-serif;font-size:18.149px;">/</text>
                </g>
                <g id="first_line" transform="matrix(1,0,0,1,-2.25699,0)">
                    <text x="58px" y="362px" style="font-family:'ArialMT', 'Arial', sans-serif;font-size:18.149px;">Hinterlegte URL<tspan x="186.44px 191.483px " y="362px 362px "> (</tspan>auch W<tspan x="258.725px 268.818px " y="362px 362px ">eb</tspan>adresse genannt):</text>
                </g>
                <g transform="matrix(1,0,0,1,-5.45944,-3)">
                    <text x="62px" y="434.787px" style="font-family:'Arial-BoldMT', 'Arial', sans-serif;font-weight:700;font-size:18.149px;">Un<tspan x="86.374px 97.55px 107.734px 117.919px 128.103px 139.279px 150.456px 156.59px 166.775px 176.959px 182.092px 195.289px 200.422px 210.606px 215.739px 225.923px 237.1px " y="434.787px 434.787px 434.787px 434.787px 434.787px 434.787px 434.787px 434.787px 434.787px 434.787px 434.787px 434.787px 434.787px 434.787px 434.787px 434.787px 434.787px ">bekanntes Risiko:</tspan></text>
                    <text x="248.367px" y="434.787px" style="font-family:'ArialMT', 'Arial', sans-serif;font-size:18.149px;">D<tspan x="261.564px 271.748px 280.913px 286.046px 299.243px 303.366px 312.531px 316.654px 325.819px 336.003px 341.136px 346.269px 356.453px 362.588px 367.721px 377.905px 388.089px 397.254px 402.387px 414.583px 418.705px 422.828px 431.993px 441.158px 451.342px 461.527px 466.66px 476.844px 487.028px 492.161px 497.294px 507.478px 517.662px 527.846px 532.979px 543.163px 547.286px " y="434.787px 434.787px 434.787px 434.787px 434.787px 434.787px 434.787px 434.787px 434.787px 434.787px 434.787px 434.787px 434.787px 434.787px 434.787px 434.787px 434.787px 434.787px 434.787px 434.787px 434.787px 434.787px 434.787px 434.787px 434.787px 434.787px 434.787px 434.787px 434.787px 434.787px 434.787px 434.787px 434.787px 434.787px 434.787px 434.787px 434.787px ">as Risiko für das Klicken auf den Lin</tspan>k</text>
                    <text x="62px" y="458.53px" style="font-family:'ArialMT', 'Arial', sans-serif;font-size:18.149px;">ka<tspan x="81.349px 91.533px 101.717px 106.85px 117.035px 121.157px 130.322px 140.507px 145.64px 150.773px 160.957px 171.141px 180.306px 185.439px 189.562px 204.77px 219.979px 225.112px 230.245px 243.442px 253.626px 259.761px 269.945px 280.129px 290.313px 295.446px 300.579px 312.775px 316.897px 327.082px 332.215px 347.423px 357.607px 366.772px 375.938px 386.122px 396.306px 401.439px 411.623px 415.746px 425.93px 432.064px 437.197px 447.381px 457.565px 466.73px 471.864px 485.061px 489.183px 498.348px 502.471px 511.636px 521.82px 526.953px 536.118px 546.303px 550.425px 560.609px 569.775px " y="458.53px 458.53px 458.53px 458.53px 458.53px 458.53px 458.53px 458.53px 458.53px 458.53px 458.53px 458.53px 458.53px 458.53px 458.53px 458.53px 458.53px 458.53px 458.53px 458.53px 458.53px 458.53px 458.53px 458.53px 458.53px 458.53px 458.53px 458.53px 458.53px 458.53px 458.53px 458.53px 458.53px 458.53px 458.53px 458.53px 458.53px 458.53px 458.53px 458.53px 458.53px 458.53px 458.53px 458.53px 458.53px 458.53px 458.53px 458.53px 458.53px 458.53px 458.53px 458.53px 458.53px 458.53px 458.53px 458.53px 458.53px 458.53px 458.53px ">nn nicht bestimmt werden. Sie müssen hier das Risiko selbst</tspan></text>
                    <text x="62px" y="482.272px" style="font-family:'ArialMT', 'Arial', sans-serif;font-size:18.149px;">ei<tspan x="76.307px 86.491px 95.656px 100.789px 110.973px 116.106px 126.29px 136.474px 141.607px 146.741px 159.938px 164.06px 174.244px 180.379px 189.544px 199.728px 204.861px 215.045px 221.18px 231.364px 236.497px 246.681px 256.865px 261.998px 274.194px 278.316px 288.501px 293.634px 303.818px 307.941px 318.125px 323.258px 336.455px 346.639px 361.848px 372.032px 376.154px " y="482.272px 482.272px 482.272px 482.272px 482.272px 482.272px 482.272px 482.272px 482.272px 482.272px 482.272px 482.272px 482.272px 482.272px 482.272px 482.272px 482.272px 482.272px 482.272px 482.272px 482.272px 482.272px 482.272px 482.272px 482.272px 482.272px 482.272px 482.272px 482.272px 482.272px 482.272px 482.272px 482.272px 482.272px 482.272px 482.272px 482.272px ">nstufen. Hierzu prüfen Sie die Domain</tspan></text>
                    <text x="62px" y="506.014px" style="font-family:'ArialMT', 'Arial', sans-serif;font-size:18.149px;">(</text>
                    <text x="68.134px" y="506.014px" style="font-family:'Arial-BoldMT', 'Arial', sans-serif;font-weight:700;font-size:18.149px;">fe<tspan x="84.453px 90.587px 96.722px 101.855px 113.031px 123.215px 130.369px 140.553px 151.73px 158.883px 170.06px 180.244px 191.42px 202.597px 213.774px 223.958px 235.134px 245.319px 252.472px 257.605px 270.802px 280.986px 288.14px 298.324px 303.457px " y="506.014px 506.014px 506.014px 506.014px 506.014px 506.014px 506.014px 506.014px 506.014px 506.014px 506.014px 506.014px 506.014px 506.014px 506.014px 506.014px 506.014px 506.014px 506.014px 506.014px 506.014px 506.014px 506.014px 506.014px 506.014px ">tt hervorgehobener Bereic</tspan>h</text>
                    <text x="324.818px" y="506.014px" style="font-family:'ArialMT', 'Arial', sans-serif;font-size:18.149px;">).</text>
                </g>
                <g transform="matrix(1,0,0,1,14.875,-257.954)">
                    <text x="40.921px" y="853px" style="font-family:'ArialMT', 'Arial', sans-serif;font-size:18.149px;">D<tspan x="54.155px 64.375px 70.546px 75.715px 85.935px 90.094px 100.315px 109.516px 114.686px 127.919px 138.139px 144.31px 154.53px 164.751px 169.92px 180.141px 190.361px 200.581px 209.783px 214.952px 219.111px 228.313px 232.472px 242.692px 248.863px 254.032px 259.201px 264.371px 274.591px 284.811px 300.056px 304.215px 309.385px 314.554px 326.786px 330.945px 341.166px 346.335px 356.555px 360.714px 370.935px 376.104px 389.338px 399.558px 414.803px 425.023px 429.182px 439.403px 444.572px 448.731px 458.952px 464.121px 477.354px 487.575px 497.795px 508.016px 513.185px 523.405px 529.576px 539.796px 544.966px 555.186px 565.407px " y="853px 853px 853px 853px 853px 853px 853px 853px 853px 853px 853px 853px 853px 853px 853px 853px 853px 853px 853px 853px 853px 853px 853px 853px 853px 853px 853px 853px 853px 853px 853px 853px 853px 853px 853px 853px 853px 853px 853px 853px 853px 853px 853px 853px 853px 853px 853px 853px 853px 853px 853px 853px 853px 853px 853px 853px 853px 853px 853px 853px 853px 853px 853px ">er Link wurde deaktiviert, damit Sie die Domain in Ruhe prüfen.</tspan></text>
                </g>
                <g transform="matrix(1,0,0,1,14.2043,-252.741)">
                    <text x="40.921px" y="884.54px" style="font-family:'ArialMT', 'Arial', sans-serif;font-size:18.149px;">V<tspan x="52.17px 62.409px 68.597px 78.836px 83.013px 93.252px 97.429px 107.668px 117.906px 128.145px 138.383px 148.622px 153.809px 165.04px 175.279px 179.456px 184.644px 189.831px 195.019px 205.257px 210.445px 222.695px 232.933px 242.153px 252.391px 262.63px 272.869px 283.107px 289.296px 299.535px 305.723px " y="884.54px 884.54px 884.54px 884.54px 884.54px 884.54px 884.54px 884.54px 884.54px 884.54px 884.54px 884.54px 884.54px 884.54px 884.54px 884.54px 884.54px 884.54px 884.54px 884.54px 884.54px 884.54px 884.54px 884.54px 884.54px 884.54px 884.54px 884.54px 884.54px 884.54px 884.54px ">erbleibende Zeit: 2 Sekunde(n).</tspan></text>
                </g>
                <g id="more_information_classification" transform="matrix(1,0,0,1,0.98364,-43.2288)">
                    <g transform="matrix(1,0,0,1,-592.961,-556.608)">
                        <text x="695px" y="1149.09px" style="font-family:'ArialMT', 'Arial', sans-serif;font-size:19px;">M<tspan x="710.352px 720.444px 730.536px 736.388px 741.192px 745.996px 756.088px 760.891px 770.983px 776.835px 792.188px 802.279px 807.083px 810.829px 820.921px 831.013px 841.105px 851.197px 856.001px 865.026px 875.118px 879.922px 890.013px 893.76px 903.852px 912.877px 922.968px 928.821px 933.624px 945.822px 949.568px 959.66px 968.685px 973.489px 983.581px 988.385px 998.477px 1008.57px " y="1149.09px 1149.09px 1149.09px 1149.09px 1149.09px 1149.09px 1149.09px 1149.09px 1149.09px 1149.09px 1149.09px 1149.09px 1149.09px 1149.09px 1149.09px 1149.09px 1149.09px 1149.09px 1149.09px 1149.09px 1149.09px 1149.09px 1149.09px 1149.09px 1149.09px 1149.09px 1149.09px 1149.09px 1149.09px 1149.09px 1149.09px 1149.09px 1149.09px 1149.09px 1149.09px 1149.09px 1149.09px 1149.09px ">ehr Informationen zu dieser Einstufung</tspan></text>
                        <rect x="695" y="1151.1" width="323.661" height="1.392"/>
                    </g>
                    <g id="info_icon" transform="matrix(1,0,0,1,-591.961,-552.438)">
                        <g id="information_icon_text" transform="matrix(1,0,0,1,0,0.499922)">
                            <g transform="matrix(30,0,0,30,658.802,1148.72)">
                                <path d="M0.199,-0C0.181,0.004 0.177,0.008 0.127,0.009C0.118,0.009 0.108,0.006 0.102,0.005C0.076,-0 0.064,-0.008 0.065,-0.018L0.065,-0.021C0.081,-0.113 0.09,-0.166 0.093,-0.181C0.103,-0.243 0.107,-0.297 0.107,-0.342C0.107,-0.352 0.103,-0.359 0.093,-0.363C0.083,-0.366 0.071,-0.368 0.056,-0.368C0.041,-0.368 0.031,-0.367 0.026,-0.367L0.028,-0.393C0.037,-0.391 0.045,-0.391 0.053,-0.391L0.077,-0.391C0.093,-0.391 0.116,-0.395 0.146,-0.403C0.177,-0.411 0.199,-0.415 0.213,-0.415C0.224,-0.415 0.231,-0.411 0.233,-0.403C0.236,-0.396 0.237,-0.388 0.237,-0.382C0.237,-0.326 0.233,-0.259 0.224,-0.179C0.218,-0.138 0.214,-0.097 0.209,-0.057L0.261,-0.068L0.266,-0.037C0.256,-0.029 0.246,-0.022 0.236,-0.017C0.226,-0.011 0.212,-0.003 0.199,-0Z" style="fill:rgb(10,20,87);fill-rule:nonzero;"/>
                            </g>
                            <g transform="matrix(1.75018,0,0,1.75018,-498.398,-849.473)">
                                <circle cx="664.369" cy="1132.35" r="1.333" style="fill:rgb(10,20,87);"/>
                            </g>
                        </g>
                        <g transform="matrix(0.9375,0,0,0.9375,41.6198,72.1875)">
                            <circle cx="663" cy="1139" r="16" style="fill:none;stroke:rgb(10,20,87);stroke-width:3px;"/>
                        </g>
                    </g>
                </g>
            </g>
            <g transform="matrix(1,0,0,1,-2.11259,-0.273832)">
                <text x="46px" y="603px" style="font-family:'ArialMT', 'Arial', sans-serif;font-size:23.733px;fill:rgb(0,159,242);">Hier</text>
                <text x="96.108px" y="603px" style="font-family:'ArialMT', 'Arial', sans-serif;font-size:23.733px;">ﬁnden Sie</text>
                <text x="46px" y="629.048px" style="font-family:'ArialMT', 'Arial', sans-serif;font-size:23.733px;">mehr Information</text>
            </g>
            <path d="M25,631.5L25,566L234,566L234,631.5" style="fill:none;stroke:rgb(0,159,242);stroke-width:4.07px;"/>
            <g id="mouse_cursor" transform="matrix(0.600152,0,0,0.600152,-138.955,455.455)">
                <path d="M353,272C353.833,273.715 355.845,275.407 357,277.292C358.544,279.815 362.266,287.133 362.266,287.133C362.266,287.133 364.95,291.689 367,293C369.05,294.311 372.233,295 374.566,295C376.812,295 379.134,294.25 381,293C383.239,291.5 386.774,289.064 388,286C389.333,282.667 389,276.833 389,273C389,269.65 388.588,264.878 388,263C386.962,259.685 382.287,260.866 382.357,262.065C382.507,264.632 382.434,266.133 382.434,266.133C382.434,266.133 382.572,261.355 382,260C381.533,258.893 380.031,258 379,258C377.969,258 375.532,258.29 375.816,260C376.1,261.71 375.816,266 375.816,266C375.816,266 376.119,261.5 375.816,260C375.585,258.854 374.803,257.5 374,257C373.197,256.5 371.769,256.862 371,257C370.405,257.107 369.388,257.829 369.388,257.829L369.434,266C369.434,266 369.426,247.097 368.96,245.231C368.394,242.967 362.732,242.649 361.96,245.231C361.187,247.812 362,272 362,272C362,272 357.188,265.357 356,265C354.812,264.643 352.277,264.877 352,267C351.723,269.123 352.257,270.471 353,272Z" style="fill:white;stroke:black;stroke-width:2.03px;"/>
            </g>
        </g>
    </g>
</svg>
