<?xml version="1.0" encoding="UTF-8" standalone="no"?>
<!DOCTYPE svg PUBLIC "-//W3C//DTD SVG 1.1//EN" "http://www.w3.org/Graphics/SVG/1.1/DTD/svg11.dtd">
<svg width="100%" height="100%" viewBox="0 0 250 40" version="1.1" xmlns="http://www.w3.org/2000/svg" xmlns:xlink="http://www.w3.org/1999/xlink" xml:space="preserve" xmlns:serif="http://www.serif.com/" style="fill-rule:evenodd;clip-rule:evenodd;stroke-linejoin:round;stroke-miterlimit:2;">
    <g transform="matrix(1,0,0,1,-375,-230)">
        <g transform="matrix(1,0,0,1,289.979,188.561)">
            <g id="TORPEDO_FullLockup">
                <g id="g64" transform="matrix(0.511883,0,0,0.511883,52.8287,-144.117)">
                    <path id="path66" d="M137.863,434.183C132.975,433.36 128.184,430.899 124.998,427.573C122.759,425.237 120.475,420.748 119.442,416.655C118.656,413.543 118.6,412.51 118.6,401.098C118.6,389.686 118.656,388.653 119.442,385.541C121.599,376.996 126.386,370.836 134.352,368.868C137.499,368.09 138.285,367.8 143.032,367.862C147.943,367.926 148.775,368.144 151.712,368.868C159.647,370.825 164.473,377.028 166.622,385.541C167.407,388.653 167.463,389.686 167.463,401.098C167.463,412.51 167.407,413.543 166.622,416.655C164.119,426.569 157.886,432.416 147.946,434.177C145.411,434.626 140.51,434.629 137.863,434.182L137.863,434.183ZM148.778,423.302C151.317,422.192 153.767,419.494 154.836,416.63C156.898,411.105 156.898,391.091 154.836,385.566C153.767,382.702 151.317,380.004 148.778,378.894C145.803,377.593 141.123,377.439 138.142,378.543C135.169,379.645 132.35,382.461 131.234,385.444C129.188,390.911 129.164,411.222 131.197,416.655C132.516,420.181 135.167,422.68 138.894,423.912C141.218,424.68 146.351,424.364 148.778,423.302ZM427.09,434.183C422.202,433.36 417.412,430.899 414.225,427.573C411.987,425.237 409.702,420.748 408.669,416.655C407.883,413.543 407.827,412.51 407.827,401.098C407.827,389.686 407.883,388.653 408.669,385.541C410.826,376.996 415.572,370.655 423.579,368.868C427.414,368.012 428.091,367.773 432.259,367.862C436.895,367.961 437.733,368.11 440.939,368.868C448.892,370.749 453.7,377.028 455.849,385.541C456.635,388.653 456.691,389.686 456.691,401.098C456.691,412.51 456.635,413.543 455.849,416.655C453.346,426.569 447.114,432.416 437.173,434.177C434.638,434.626 429.738,434.629 427.09,434.182L427.09,434.183ZM438.006,423.302C440.545,422.192 442.994,419.494 444.063,416.63C446.125,411.105 446.125,391.091 444.063,385.566C442.994,382.702 440.545,380.004 438.006,378.894C435.031,377.593 430.35,377.439 427.37,378.543C424.396,379.645 421.577,382.461 420.461,385.444C418.415,390.911 418.392,411.222 420.424,416.655C421.744,420.181 424.394,422.68 428.122,423.912C430.445,424.68 435.579,424.364 438.006,423.302ZM83.303,433.359C83.303,433.359 83.042,420.787 83.042,405.932L83.042,378.921L64.801,378.72L64.801,368.941L112.567,368.941L112.567,378.72L94.331,378.921L94.234,406.088L94.138,433.359L83.303,433.359ZM180.212,433.317C180.212,433.317 180.159,418.202 180.212,400.722L180.266,368.941L194.279,368.842C210.032,368.731 211.807,368.918 216.373,371.168C220.961,373.428 223.931,376.712 225.67,381.447C226.812,384.556 226.812,391.689 225.67,394.798C224.016,399.302 220.809,402.895 216.489,405.084C215.494,405.588 214.68,406.065 214.68,406.144C214.68,406.223 217.73,412.182 221.458,419.386C225.186,426.59 228.052,433.444 228.052,433.444L215.814,433.444L203.08,407.492L191.371,407.492L191.272,420.374L191.174,433.317L180.212,433.317ZM209.252,396.784C213.196,395.607 215.48,392.454 215.48,388.187C215.48,384.281 213.976,381.658 210.731,379.908C209.331,379.152 208.605,379.088 200.294,378.977L191.362,378.859L191.362,397.337L199.38,397.337C205.346,397.337 207.872,397.196 209.252,396.784ZM238.928,433.359C238.928,433.359 238.789,418.202 238.842,400.722L238.939,368.941L252.763,368.842C268.311,368.731 270.112,368.923 274.67,371.168C281.609,374.587 285.173,380.596 285.173,388.875C285.173,397.154 281.608,403.164 274.67,406.581C270.581,408.595 267.965,408.983 258.408,408.99L250.045,408.996L249.946,421.125L249.846,433.359L238.928,433.359ZM267.29,398.256C269.583,397.575 271.916,395.628 273.092,393.414C274.181,391.362 274.247,386.511 273.212,384.549C272.064,382.372 269.951,380.46 267.807,379.658C266.039,378.996 264.873,378.908 257.919,378.908L250.034,378.908L250.034,398.842L257.676,398.842C263.497,398.842 265.788,398.702 267.29,398.256ZM295.718,433.352C295.718,433.352 295.581,418.202 295.635,400.722L295.732,368.941L337.856,368.941L337.856,378.72L306.827,378.916L306.827,395.823L332.967,396.021L332.967,405.799L306.827,405.997L306.827,423.28L337.856,423.476L337.856,433.352L295.718,433.352ZM350.263,433.361C350.263,433.361 350.117,418.2 350.17,400.721L350.267,368.916C350.267,368.916 371.417,368.424 377.466,368.916C380.643,369.174 384.634,370.338 386.563,371.866C389.678,374.333 394.86,377.802 396.605,386.052C397.6,390.757 397.6,411.437 396.605,416.141C394.86,424.392 390.292,429.757 382.893,432.246C379.984,433.225 379.958,433.226 365.216,433.361C353.228,433.471 350.263,433.361 350.263,433.361ZM378.956,422.006C384.716,419.353 386.186,415.102 386.186,401.097C386.186,387.092 384.716,382.84 378.956,380.188C376.639,379.121 376.452,379.098 368.979,378.97L361.363,378.84L361.363,423.354L368.979,423.224C376.452,423.096 376.639,423.073 378.956,422.006Z" style="fill:rgb(0,64,100);fill-rule:nonzero;"/>
                </g>
                <g transform="matrix(0.329838,0,0,0.329838,174.571,13.7902)">
                    <path d="M398.015,154.331C401.93,160.888 407.432,166.389 413.99,170.302L383.636,201.095C380.135,204.646 374.41,204.687 370.858,201.186L367.641,198.015C364.09,194.514 364.049,188.788 367.549,185.237L398.015,154.331Z" style="fill:url(#_Linear1);"/>
                    <path d="M437.47,83.96C463.345,83.96 484.351,104.967 484.351,130.842C484.351,156.716 463.345,177.723 437.47,177.723C411.596,177.723 390.589,156.716 390.589,130.842C390.589,104.967 411.596,83.96 437.47,83.96ZM437.47,100.811C454.044,100.811 467.501,114.267 467.501,130.842C467.501,147.416 454.044,160.872 437.47,160.872C420.896,160.872 407.44,147.416 407.44,130.842C407.44,114.267 420.896,100.811 437.47,100.811Z" style="fill:url(#_Linear2);"/>
                </g>
            </g>
        </g>
    </g>
    <defs>
        <linearGradient id="_Linear1" x1="0" y1="0" x2="1" y2="0" gradientUnits="userSpaceOnUse" gradientTransform="matrix(-17.2668,-18.9395,19.0997,-17.4129,397.115,188.582)"><stop offset="0" style="stop-color:rgb(186,156,10);stop-opacity:1"/><stop offset="0.5" style="stop-color:rgb(246,211,41);stop-opacity:1"/><stop offset="1" style="stop-color:rgb(186,156,10);stop-opacity:1"/></linearGradient>
        <linearGradient id="_Linear2" x1="0" y1="0" x2="1" y2="0" gradientUnits="userSpaceOnUse" gradientTransform="matrix(62.5367,70.4391,-70.4398,62.5373,404.964,97.922)"><stop offset="0" style="stop-color:rgb(10,85,128);stop-opacity:1"/><stop offset="0.2" style="stop-color:rgb(6,77,117);stop-opacity:1"/><stop offset="0.43" style="stop-color:rgb(2,68,105);stop-opacity:1"/><stop offset="1" style="stop-color:rgb(0,64,100);stop-opacity:1"/></linearGradient>
    </defs>
</svg>
